G04 EAGLE Gerber X2 export*
%TF.Part,Single*%
%TF.FileFunction,Copper,L1,Top,Mixed*%
%TF.FilePolarity,Positive*%
%TF.GenerationSoftware,Autodesk,EAGLE,9.1.0*%
%TF.CreationDate,2018-09-26T17:21:40Z*%
G75*
%MOMM*%
%FSLAX34Y34*%
%LPD*%
%AMOC8*
5,1,8,0,0,1.08239X$1,22.5*%
G01*
%ADD10C,1.320800*%
%ADD11C,1.676400*%
%ADD12P,1.924489X8X112.500000*%
%ADD13C,1.625600*%
%ADD14C,1.879600*%
%ADD15R,1.651000X1.651000*%
%ADD16C,1.651000*%
%ADD17C,1.778000*%
%ADD18C,1.524000*%
%ADD19C,2.260600*%
%ADD20C,1.638300*%
%ADD21R,0.889000X0.381000*%
%ADD22C,0.863600*%
%ADD23C,0.381000*%
%ADD24C,2.032000*%
%ADD25R,0.381000X1.016000*%
%ADD26R,0.381000X0.889000*%
%ADD27R,6.934200X9.169400*%
%ADD28R,3.086100X10.337800*%
%ADD29R,6.654800X8.153400*%
%ADD30R,6.576056X8.178800*%
%ADD31R,6.642100X8.153400*%
%ADD32R,6.604000X8.153400*%
%ADD33R,3.098800X10.769600*%
%ADD34R,3.111500X8.534400*%
%ADD35R,3.098800X10.972800*%
%ADD36R,4.546600X9.169400*%
%ADD37R,6.908800X9.169400*%
%ADD38R,6.985000X9.169400*%
%ADD39R,3.124200X11.252200*%
%ADD40C,0.508000*%
%ADD41C,1.006400*%
%ADD42C,0.406400*%

G36*
X404156Y142375D02*
X404156Y142375D01*
X404198Y142373D01*
X404265Y142395D01*
X404335Y142407D01*
X404371Y142429D01*
X404412Y142442D01*
X404485Y142496D01*
X404528Y142522D01*
X404541Y142538D01*
X404562Y142554D01*
X414468Y152460D01*
X414493Y152494D01*
X414524Y152523D01*
X414556Y152586D01*
X414597Y152644D01*
X414607Y152685D01*
X414627Y152723D01*
X414640Y152812D01*
X414653Y152861D01*
X414650Y152882D01*
X414654Y152908D01*
X414654Y154686D01*
X414643Y154751D01*
X414641Y154817D01*
X414623Y154860D01*
X414615Y154907D01*
X414581Y154964D01*
X414556Y155024D01*
X414525Y155059D01*
X414500Y155100D01*
X414449Y155142D01*
X414405Y155190D01*
X414363Y155212D01*
X414326Y155241D01*
X414264Y155262D01*
X414205Y155293D01*
X414151Y155301D01*
X414114Y155313D01*
X414074Y155312D01*
X414020Y155320D01*
X348742Y155320D01*
X348703Y155313D01*
X348663Y155315D01*
X348593Y155294D01*
X348521Y155281D01*
X348487Y155260D01*
X348449Y155249D01*
X348391Y155204D01*
X348328Y155166D01*
X348303Y155136D01*
X348272Y155112D01*
X348233Y155049D01*
X348187Y154992D01*
X348174Y154955D01*
X348153Y154921D01*
X348131Y154827D01*
X348115Y154780D01*
X348115Y154761D01*
X348110Y154739D01*
X347983Y153215D01*
X347990Y153144D01*
X347987Y153074D01*
X348000Y153034D01*
X348004Y152991D01*
X348035Y152928D01*
X348057Y152861D01*
X348086Y152822D01*
X348089Y152816D01*
X348091Y152812D01*
X348091Y152811D01*
X348102Y152789D01*
X348133Y152760D01*
X348169Y152711D01*
X358456Y142551D01*
X358490Y142528D01*
X358517Y142498D01*
X358582Y142465D01*
X358641Y142424D01*
X358681Y142414D01*
X358717Y142395D01*
X358810Y142382D01*
X358859Y142369D01*
X358878Y142371D01*
X358902Y142368D01*
X404114Y142368D01*
X404156Y142375D01*
G37*
G36*
X644313Y142375D02*
X644313Y142375D01*
X644355Y142373D01*
X644422Y142395D01*
X644492Y142407D01*
X644528Y142429D01*
X644568Y142442D01*
X644641Y142496D01*
X644685Y142522D01*
X644698Y142538D01*
X644719Y142553D01*
X654892Y152713D01*
X654943Y152786D01*
X654999Y152855D01*
X655006Y152878D01*
X655020Y152897D01*
X655042Y152983D01*
X655071Y153068D01*
X655070Y153092D01*
X655076Y153115D01*
X655067Y153203D01*
X655064Y153292D01*
X655056Y153314D01*
X655053Y153338D01*
X655014Y153417D01*
X654980Y153500D01*
X654964Y153518D01*
X654954Y153539D01*
X654889Y153600D01*
X654829Y153666D01*
X654808Y153677D01*
X654791Y153693D01*
X654709Y153728D01*
X654630Y153768D01*
X654603Y153772D01*
X654584Y153781D01*
X654534Y153783D01*
X654444Y153796D01*
X589141Y153847D01*
X589050Y153831D01*
X588959Y153820D01*
X588940Y153811D01*
X588920Y153808D01*
X588840Y153761D01*
X588758Y153719D01*
X588744Y153704D01*
X588727Y153694D01*
X588669Y153622D01*
X588606Y153554D01*
X588598Y153535D01*
X588585Y153520D01*
X588556Y153432D01*
X588520Y153347D01*
X588520Y153327D01*
X588513Y153307D01*
X588516Y153215D01*
X588512Y153123D01*
X588519Y153103D01*
X588520Y153083D01*
X588554Y152997D01*
X588583Y152910D01*
X588597Y152892D01*
X588604Y152875D01*
X588638Y152837D01*
X588696Y152760D01*
X599097Y142549D01*
X599130Y142527D01*
X599157Y142498D01*
X599222Y142464D01*
X599283Y142423D01*
X599321Y142414D01*
X599356Y142395D01*
X599452Y142381D01*
X599500Y142369D01*
X599519Y142371D01*
X599542Y142368D01*
X644271Y142368D01*
X644313Y142375D01*
G37*
G36*
X804458Y142375D02*
X804458Y142375D01*
X804498Y142373D01*
X804567Y142395D01*
X804639Y142407D01*
X804674Y142428D01*
X804712Y142440D01*
X804788Y142496D01*
X804832Y142522D01*
X804844Y142537D01*
X804864Y142551D01*
X815151Y152711D01*
X815203Y152785D01*
X815260Y152856D01*
X815267Y152876D01*
X815280Y152894D01*
X815303Y152982D01*
X815332Y153068D01*
X815332Y153090D01*
X815337Y153111D01*
X815328Y153202D01*
X815326Y153293D01*
X815318Y153313D01*
X815315Y153334D01*
X815276Y153416D01*
X815241Y153500D01*
X815227Y153517D01*
X815217Y153536D01*
X815151Y153599D01*
X815090Y153666D01*
X815071Y153676D01*
X815055Y153691D01*
X814971Y153727D01*
X814890Y153769D01*
X814866Y153772D01*
X814849Y153780D01*
X814798Y153782D01*
X814705Y153796D01*
X749554Y153796D01*
X749462Y153780D01*
X749370Y153769D01*
X749353Y153760D01*
X749333Y153757D01*
X749253Y153709D01*
X749170Y153667D01*
X749157Y153653D01*
X749140Y153642D01*
X749082Y153571D01*
X749019Y153502D01*
X749011Y153484D01*
X748999Y153468D01*
X748969Y153381D01*
X748934Y153294D01*
X748933Y153274D01*
X748927Y153256D01*
X748929Y153163D01*
X748926Y153070D01*
X748933Y153051D01*
X748933Y153031D01*
X748968Y152946D01*
X748998Y152857D01*
X749011Y152840D01*
X749018Y152824D01*
X749052Y152786D01*
X749111Y152708D01*
X759525Y142548D01*
X759557Y142526D01*
X759583Y142498D01*
X759649Y142464D01*
X759711Y142422D01*
X759748Y142413D01*
X759783Y142395D01*
X759880Y142381D01*
X759929Y142369D01*
X759946Y142371D01*
X759968Y142368D01*
X804418Y142368D01*
X804458Y142375D01*
G37*
G36*
X723941Y142375D02*
X723941Y142375D01*
X723982Y142373D01*
X724050Y142395D01*
X724121Y142407D01*
X724157Y142429D01*
X724196Y142441D01*
X724271Y142496D01*
X724314Y142522D01*
X724327Y142537D01*
X724347Y142552D01*
X734670Y152814D01*
X734722Y152888D01*
X734778Y152958D01*
X734786Y152979D01*
X734798Y152998D01*
X734821Y153085D01*
X734850Y153171D01*
X734849Y153193D01*
X734855Y153215D01*
X734846Y153305D01*
X734843Y153395D01*
X734835Y153416D01*
X734832Y153438D01*
X734793Y153519D01*
X734758Y153603D01*
X734743Y153619D01*
X734734Y153639D01*
X734668Y153702D01*
X734607Y153768D01*
X734587Y153778D01*
X734571Y153794D01*
X734488Y153829D01*
X734407Y153870D01*
X734382Y153874D01*
X734364Y153882D01*
X734314Y153884D01*
X734222Y153898D01*
X669416Y153796D01*
X669327Y153780D01*
X669237Y153770D01*
X669217Y153760D01*
X669195Y153756D01*
X669117Y153710D01*
X669037Y153669D01*
X669021Y153653D01*
X669002Y153642D01*
X668945Y153571D01*
X668884Y153505D01*
X668875Y153485D01*
X668861Y153467D01*
X668832Y153382D01*
X668798Y153298D01*
X668797Y153276D01*
X668790Y153255D01*
X668792Y153164D01*
X668789Y153074D01*
X668796Y153053D01*
X668797Y153030D01*
X668831Y152947D01*
X668859Y152861D01*
X668874Y152841D01*
X668881Y152823D01*
X668915Y152785D01*
X668971Y152711D01*
X679258Y142551D01*
X679292Y142528D01*
X679319Y142498D01*
X679384Y142465D01*
X679443Y142424D01*
X679483Y142414D01*
X679519Y142395D01*
X679612Y142382D01*
X679661Y142369D01*
X679680Y142371D01*
X679704Y142368D01*
X723900Y142368D01*
X723941Y142375D01*
G37*
G36*
X484413Y142882D02*
X484413Y142882D01*
X484448Y142880D01*
X484523Y142902D01*
X484599Y142915D01*
X484629Y142933D01*
X484663Y142943D01*
X484750Y143004D01*
X484792Y143030D01*
X484801Y143041D01*
X484816Y143052D01*
X494646Y152450D01*
X494701Y152525D01*
X494761Y152597D01*
X494767Y152615D01*
X494778Y152631D01*
X494804Y152721D01*
X494834Y152809D01*
X494834Y152828D01*
X494839Y152847D01*
X494832Y152940D01*
X494830Y153034D01*
X494822Y153051D01*
X494821Y153070D01*
X494781Y153155D01*
X494747Y153242D01*
X494734Y153256D01*
X494726Y153274D01*
X494659Y153340D01*
X494597Y153409D01*
X494580Y153418D01*
X494566Y153431D01*
X494481Y153470D01*
X494398Y153513D01*
X494377Y153516D01*
X494362Y153523D01*
X494311Y153527D01*
X494213Y153542D01*
X429773Y154050D01*
X429672Y154033D01*
X429570Y154018D01*
X429561Y154014D01*
X429552Y154012D01*
X429463Y153961D01*
X429372Y153912D01*
X429366Y153905D01*
X429358Y153900D01*
X429292Y153820D01*
X429225Y153743D01*
X429221Y153733D01*
X429215Y153727D01*
X429201Y153687D01*
X429153Y153570D01*
X429026Y153062D01*
X429025Y153055D01*
X429022Y153048D01*
X429018Y152943D01*
X429011Y152838D01*
X429013Y152831D01*
X429012Y152824D01*
X429045Y152723D01*
X429074Y152623D01*
X429079Y152617D01*
X429081Y152610D01*
X429193Y152460D01*
X438591Y143062D01*
X438625Y143037D01*
X438654Y143006D01*
X438717Y142974D01*
X438775Y142933D01*
X438816Y142923D01*
X438854Y142903D01*
X438943Y142890D01*
X438992Y142878D01*
X439013Y142880D01*
X439039Y142876D01*
X484378Y142876D01*
X484413Y142882D01*
G37*
G36*
X677506Y129938D02*
X677506Y129938D01*
X677594Y129947D01*
X677615Y129957D01*
X677639Y129961D01*
X677716Y130007D01*
X677795Y130046D01*
X677812Y130063D01*
X677832Y130076D01*
X677888Y130145D01*
X677949Y130209D01*
X677958Y130231D01*
X677973Y130250D01*
X678002Y130334D01*
X678037Y130416D01*
X678038Y130440D01*
X678045Y130462D01*
X678043Y130551D01*
X678047Y130640D01*
X678039Y130663D01*
X678039Y130687D01*
X678005Y130769D01*
X677978Y130854D01*
X677962Y130875D01*
X677954Y130894D01*
X677920Y130932D01*
X677866Y131004D01*
X664150Y144720D01*
X664116Y144745D01*
X664087Y144776D01*
X664024Y144808D01*
X663966Y144849D01*
X663925Y144859D01*
X663887Y144879D01*
X663798Y144892D01*
X663749Y144905D01*
X663728Y144902D01*
X663702Y144906D01*
X660146Y144906D01*
X660104Y144899D01*
X660062Y144901D01*
X659995Y144879D01*
X659925Y144867D01*
X659889Y144845D01*
X659848Y144832D01*
X659775Y144778D01*
X659732Y144752D01*
X659719Y144736D01*
X659698Y144720D01*
X645982Y131004D01*
X645931Y130931D01*
X645875Y130862D01*
X645867Y130840D01*
X645853Y130820D01*
X645831Y130734D01*
X645803Y130650D01*
X645803Y130626D01*
X645798Y130603D01*
X645807Y130514D01*
X645809Y130425D01*
X645818Y130403D01*
X645821Y130380D01*
X645860Y130300D01*
X645894Y130218D01*
X645910Y130200D01*
X645920Y130179D01*
X645985Y130118D01*
X646045Y130052D01*
X646066Y130041D01*
X646083Y130025D01*
X646165Y129990D01*
X646245Y129949D01*
X646271Y129946D01*
X646290Y129937D01*
X646340Y129935D01*
X646430Y129922D01*
X677418Y129922D01*
X677506Y129938D01*
G37*
G36*
X437222Y129938D02*
X437222Y129938D01*
X437310Y129947D01*
X437331Y129957D01*
X437355Y129961D01*
X437432Y130007D01*
X437511Y130046D01*
X437528Y130063D01*
X437548Y130076D01*
X437604Y130145D01*
X437665Y130209D01*
X437674Y130231D01*
X437689Y130250D01*
X437718Y130334D01*
X437753Y130416D01*
X437754Y130440D01*
X437761Y130462D01*
X437759Y130551D01*
X437763Y130640D01*
X437755Y130663D01*
X437755Y130687D01*
X437721Y130769D01*
X437694Y130854D01*
X437678Y130875D01*
X437670Y130894D01*
X437636Y130932D01*
X437582Y131004D01*
X424120Y144466D01*
X424086Y144491D01*
X424057Y144522D01*
X423994Y144554D01*
X423936Y144595D01*
X423895Y144605D01*
X423857Y144625D01*
X423768Y144638D01*
X423719Y144651D01*
X423698Y144648D01*
X423672Y144652D01*
X419608Y144652D01*
X419566Y144645D01*
X419524Y144647D01*
X419457Y144625D01*
X419387Y144613D01*
X419351Y144591D01*
X419310Y144578D01*
X419237Y144524D01*
X419194Y144498D01*
X419181Y144482D01*
X419160Y144466D01*
X405698Y131004D01*
X405647Y130931D01*
X405591Y130862D01*
X405583Y130840D01*
X405569Y130820D01*
X405547Y130734D01*
X405519Y130650D01*
X405519Y130626D01*
X405514Y130603D01*
X405523Y130514D01*
X405525Y130425D01*
X405534Y130403D01*
X405537Y130380D01*
X405576Y130300D01*
X405610Y130218D01*
X405626Y130200D01*
X405636Y130179D01*
X405701Y130118D01*
X405761Y130052D01*
X405782Y130041D01*
X405799Y130025D01*
X405881Y129990D01*
X405961Y129949D01*
X405987Y129946D01*
X406006Y129937D01*
X406056Y129935D01*
X406146Y129922D01*
X437134Y129922D01*
X437222Y129938D01*
G37*
G36*
X756754Y130446D02*
X756754Y130446D01*
X756842Y130455D01*
X756863Y130465D01*
X756887Y130469D01*
X756964Y130515D01*
X757043Y130554D01*
X757060Y130571D01*
X757080Y130584D01*
X757136Y130653D01*
X757197Y130717D01*
X757206Y130739D01*
X757221Y130758D01*
X757250Y130842D01*
X757285Y130924D01*
X757286Y130948D01*
X757293Y130970D01*
X757291Y131059D01*
X757295Y131148D01*
X757287Y131171D01*
X757287Y131195D01*
X757253Y131277D01*
X757226Y131362D01*
X757210Y131383D01*
X757202Y131402D01*
X757168Y131440D01*
X757114Y131512D01*
X744668Y143958D01*
X744634Y143983D01*
X744605Y144014D01*
X744542Y144046D01*
X744484Y144087D01*
X744443Y144097D01*
X744405Y144117D01*
X744316Y144130D01*
X744267Y144143D01*
X744246Y144140D01*
X744220Y144144D01*
X739648Y144144D01*
X739606Y144137D01*
X739564Y144139D01*
X739497Y144117D01*
X739427Y144105D01*
X739391Y144083D01*
X739350Y144070D01*
X739277Y144016D01*
X739234Y143990D01*
X739221Y143974D01*
X739200Y143958D01*
X726754Y131512D01*
X726703Y131439D01*
X726647Y131370D01*
X726639Y131348D01*
X726625Y131328D01*
X726603Y131242D01*
X726575Y131158D01*
X726575Y131134D01*
X726570Y131111D01*
X726579Y131022D01*
X726581Y130933D01*
X726590Y130911D01*
X726593Y130888D01*
X726632Y130808D01*
X726666Y130726D01*
X726682Y130708D01*
X726692Y130687D01*
X726757Y130626D01*
X726817Y130560D01*
X726838Y130549D01*
X726855Y130533D01*
X726937Y130498D01*
X727017Y130457D01*
X727043Y130454D01*
X727062Y130445D01*
X727112Y130443D01*
X727202Y130430D01*
X756666Y130430D01*
X756754Y130446D01*
G37*
G36*
X356958Y130192D02*
X356958Y130192D01*
X357046Y130201D01*
X357067Y130211D01*
X357091Y130215D01*
X357168Y130261D01*
X357247Y130300D01*
X357264Y130317D01*
X357284Y130330D01*
X357340Y130399D01*
X357401Y130463D01*
X357410Y130485D01*
X357425Y130504D01*
X357454Y130588D01*
X357489Y130670D01*
X357490Y130694D01*
X357497Y130716D01*
X357495Y130805D01*
X357499Y130894D01*
X357491Y130917D01*
X357491Y130941D01*
X357457Y131023D01*
X357430Y131108D01*
X357414Y131129D01*
X357406Y131148D01*
X357372Y131186D01*
X357318Y131258D01*
X336998Y151578D01*
X336969Y151599D01*
X336959Y151610D01*
X336936Y151622D01*
X336925Y151629D01*
X336856Y151685D01*
X336834Y151693D01*
X336814Y151707D01*
X336728Y151729D01*
X336644Y151757D01*
X336620Y151757D01*
X336597Y151763D01*
X336508Y151753D01*
X336419Y151751D01*
X336397Y151742D01*
X336374Y151739D01*
X336294Y151700D01*
X336212Y151666D01*
X336194Y151650D01*
X336173Y151640D01*
X336112Y151575D01*
X336046Y151515D01*
X336035Y151494D01*
X336019Y151477D01*
X335984Y151395D01*
X335943Y151315D01*
X335940Y151289D01*
X335931Y151270D01*
X335929Y151220D01*
X335929Y151218D01*
X335923Y151200D01*
X335923Y151180D01*
X335916Y151130D01*
X335916Y130810D01*
X335927Y130745D01*
X335929Y130679D01*
X335947Y130636D01*
X335955Y130589D01*
X335989Y130532D01*
X336014Y130472D01*
X336045Y130437D01*
X336070Y130396D01*
X336121Y130355D01*
X336165Y130306D01*
X336207Y130284D01*
X336244Y130255D01*
X336306Y130234D01*
X336365Y130203D01*
X336419Y130195D01*
X336456Y130183D01*
X336496Y130184D01*
X336550Y130176D01*
X356870Y130176D01*
X356958Y130192D01*
G37*
G36*
X505779Y129425D02*
X505779Y129425D01*
X505845Y129427D01*
X505888Y129445D01*
X505935Y129453D01*
X505992Y129487D01*
X506052Y129512D01*
X506087Y129543D01*
X506128Y129568D01*
X506170Y129619D01*
X506218Y129663D01*
X506240Y129705D01*
X506269Y129742D01*
X506290Y129804D01*
X506321Y129863D01*
X506329Y129917D01*
X506341Y129954D01*
X506340Y129994D01*
X506348Y130048D01*
X506348Y150368D01*
X506336Y150438D01*
X506335Y150475D01*
X506329Y150488D01*
X506323Y150544D01*
X506313Y150565D01*
X506309Y150589D01*
X506263Y150666D01*
X506224Y150745D01*
X506207Y150762D01*
X506194Y150782D01*
X506125Y150838D01*
X506061Y150899D01*
X506039Y150908D01*
X506020Y150923D01*
X505936Y150952D01*
X505854Y150987D01*
X505830Y150988D01*
X505808Y150995D01*
X505719Y150993D01*
X505630Y150997D01*
X505607Y150989D01*
X505583Y150989D01*
X505501Y150955D01*
X505416Y150928D01*
X505395Y150912D01*
X505376Y150904D01*
X505338Y150870D01*
X505278Y150826D01*
X505276Y150824D01*
X505275Y150824D01*
X505266Y150816D01*
X484946Y130496D01*
X484895Y130423D01*
X484839Y130354D01*
X484831Y130332D01*
X484817Y130312D01*
X484795Y130226D01*
X484767Y130142D01*
X484767Y130118D01*
X484762Y130095D01*
X484771Y130006D01*
X484773Y129917D01*
X484782Y129895D01*
X484785Y129872D01*
X484824Y129792D01*
X484858Y129710D01*
X484874Y129692D01*
X484884Y129671D01*
X484949Y129610D01*
X485009Y129544D01*
X485030Y129533D01*
X485047Y129517D01*
X485129Y129482D01*
X485209Y129441D01*
X485235Y129438D01*
X485254Y129429D01*
X485304Y129427D01*
X485394Y129414D01*
X505714Y129414D01*
X505779Y129425D01*
G37*
G36*
X826558Y129929D02*
X826558Y129929D01*
X826600Y129927D01*
X826667Y129949D01*
X826737Y129961D01*
X826773Y129983D01*
X826814Y129996D01*
X826887Y130050D01*
X826930Y130076D01*
X826943Y130092D01*
X826964Y130108D01*
X827218Y130362D01*
X827271Y130437D01*
X827329Y130510D01*
X827335Y130529D01*
X827347Y130546D01*
X827370Y130635D01*
X827398Y130723D01*
X827397Y130743D01*
X827403Y130763D01*
X827393Y130855D01*
X827389Y130947D01*
X827381Y130966D01*
X827379Y130986D01*
X827338Y131069D01*
X827303Y131154D01*
X827289Y131169D01*
X827280Y131187D01*
X827213Y131251D01*
X827150Y131317D01*
X827150Y149860D01*
X827134Y149948D01*
X827125Y150036D01*
X827115Y150057D01*
X827111Y150081D01*
X827065Y150158D01*
X827026Y150237D01*
X827009Y150254D01*
X826996Y150274D01*
X826927Y150330D01*
X826863Y150391D01*
X826841Y150400D01*
X826822Y150415D01*
X826738Y150444D01*
X826656Y150479D01*
X826632Y150480D01*
X826610Y150487D01*
X826521Y150485D01*
X826432Y150489D01*
X826409Y150481D01*
X826385Y150481D01*
X826303Y150447D01*
X826218Y150420D01*
X826197Y150404D01*
X826178Y150396D01*
X826140Y150362D01*
X826068Y150308D01*
X807272Y131512D01*
X807221Y131439D01*
X807165Y131370D01*
X807157Y131348D01*
X807143Y131328D01*
X807121Y131242D01*
X807120Y131240D01*
X802379Y131190D01*
X802273Y131170D01*
X802165Y131151D01*
X802162Y131149D01*
X802159Y131148D01*
X802067Y131093D01*
X801972Y131036D01*
X801970Y131034D01*
X801967Y131032D01*
X801899Y130947D01*
X801831Y130862D01*
X801830Y130859D01*
X801827Y130856D01*
X801794Y130753D01*
X801759Y130650D01*
X801759Y130646D01*
X801758Y130643D01*
X801762Y130534D01*
X801765Y130425D01*
X801767Y130422D01*
X801767Y130419D01*
X801809Y130317D01*
X801850Y130218D01*
X801852Y130215D01*
X801853Y130212D01*
X801927Y130132D01*
X802001Y130052D01*
X802004Y130050D01*
X802006Y130048D01*
X802102Y130000D01*
X802201Y129949D01*
X802204Y129949D01*
X802207Y129948D01*
X802296Y129935D01*
X802386Y129922D01*
X826516Y129922D01*
X826558Y129929D01*
G37*
G36*
X596734Y130446D02*
X596734Y130446D01*
X596822Y130455D01*
X596843Y130465D01*
X596867Y130469D01*
X596944Y130515D01*
X597023Y130554D01*
X597040Y130571D01*
X597060Y130584D01*
X597116Y130653D01*
X597177Y130717D01*
X597186Y130739D01*
X597201Y130758D01*
X597230Y130842D01*
X597265Y130924D01*
X597266Y130948D01*
X597273Y130970D01*
X597271Y131059D01*
X597275Y131148D01*
X597267Y131171D01*
X597267Y131195D01*
X597233Y131277D01*
X597206Y131362D01*
X597190Y131383D01*
X597182Y131402D01*
X597148Y131440D01*
X597094Y131512D01*
X577536Y151070D01*
X577463Y151121D01*
X577394Y151177D01*
X577372Y151185D01*
X577352Y151199D01*
X577266Y151221D01*
X577182Y151249D01*
X577158Y151249D01*
X577135Y151255D01*
X577046Y151245D01*
X576957Y151243D01*
X576935Y151234D01*
X576912Y151231D01*
X576832Y151192D01*
X576750Y151158D01*
X576732Y151142D01*
X576711Y151132D01*
X576650Y151067D01*
X576584Y151007D01*
X576573Y150986D01*
X576557Y150969D01*
X576522Y150887D01*
X576481Y150807D01*
X576478Y150781D01*
X576469Y150762D01*
X576467Y150712D01*
X576454Y150622D01*
X576454Y131318D01*
X576461Y131276D01*
X576459Y131234D01*
X576481Y131167D01*
X576493Y131097D01*
X576515Y131061D01*
X576528Y131020D01*
X576582Y130947D01*
X576608Y130904D01*
X576624Y130891D01*
X576640Y130870D01*
X576894Y130616D01*
X576928Y130591D01*
X576957Y130560D01*
X577020Y130528D01*
X577078Y130487D01*
X577119Y130477D01*
X577157Y130457D01*
X577246Y130444D01*
X577295Y130432D01*
X577316Y130434D01*
X577342Y130430D01*
X596646Y130430D01*
X596734Y130446D01*
G37*
D10*
X139700Y399796D02*
X139700Y413004D01*
X165100Y413004D02*
X165100Y399796D01*
X190500Y399796D02*
X190500Y413004D01*
X215900Y413004D02*
X215900Y399796D01*
X241300Y399796D02*
X241300Y413004D01*
X266700Y413004D02*
X266700Y399796D01*
X292100Y399796D02*
X292100Y413004D01*
X317500Y413004D02*
X317500Y399796D01*
X342900Y399796D02*
X342900Y413004D01*
X368300Y413004D02*
X368300Y399796D01*
X393700Y399796D02*
X393700Y413004D01*
X419100Y413004D02*
X419100Y399796D01*
X444500Y399796D02*
X444500Y413004D01*
X469900Y413004D02*
X469900Y399796D01*
X469900Y475996D02*
X469900Y489204D01*
X444500Y489204D02*
X444500Y475996D01*
X419100Y475996D02*
X419100Y489204D01*
X393700Y489204D02*
X393700Y475996D01*
X368300Y475996D02*
X368300Y489204D01*
X342900Y489204D02*
X342900Y475996D01*
X317500Y475996D02*
X317500Y489204D01*
X292100Y489204D02*
X292100Y475996D01*
X266700Y475996D02*
X266700Y489204D01*
X241300Y489204D02*
X241300Y475996D01*
X215900Y475996D02*
X215900Y489204D01*
X190500Y489204D02*
X190500Y475996D01*
X165100Y475996D02*
X165100Y489204D01*
X139700Y489204D02*
X139700Y475996D01*
D11*
X330200Y349250D03*
X355600Y349250D03*
X381000Y349250D03*
D12*
X114300Y763270D03*
X139700Y760730D03*
X165100Y763270D03*
X190500Y760730D03*
X215900Y763270D03*
X241300Y760730D03*
D13*
X38100Y736600D03*
X63500Y736600D03*
X63500Y762000D03*
X38100Y762000D03*
X38100Y711200D03*
X63500Y711200D03*
D11*
X965200Y606100D03*
X965200Y486100D03*
D14*
X254000Y533400D03*
X355600Y533400D03*
X406400Y584200D03*
X508000Y584200D03*
X406400Y635000D03*
X508000Y635000D03*
X254000Y635000D03*
X355600Y635000D03*
X254000Y584200D03*
X355600Y584200D03*
X609600Y469900D03*
X711200Y469900D03*
X508000Y685800D03*
X609600Y685800D03*
X381000Y685800D03*
X482600Y685800D03*
X254000Y685800D03*
X355600Y685800D03*
D10*
X819150Y533654D02*
X819150Y520446D01*
X844550Y520446D02*
X844550Y533654D01*
X869950Y533654D02*
X869950Y520446D01*
X895350Y520446D02*
X895350Y533654D01*
X895350Y596646D02*
X895350Y609854D01*
X869950Y609854D02*
X869950Y596646D01*
X844550Y596646D02*
X844550Y609854D01*
X819150Y609854D02*
X819150Y596646D01*
D14*
X609600Y508000D03*
X711200Y508000D03*
X762000Y736600D03*
X863600Y736600D03*
X762000Y774700D03*
X863600Y774700D03*
D15*
X171450Y577850D03*
D16*
X146050Y577850D03*
D15*
X819150Y679450D03*
D16*
X793750Y679450D03*
D15*
X654050Y641350D03*
D16*
X628650Y641350D03*
D15*
X654050Y571500D03*
D16*
X628650Y571500D03*
D17*
X323850Y749300D03*
X349250Y749300D03*
X565150Y749300D03*
X590550Y749300D03*
X444500Y749300D03*
X469900Y749300D03*
D18*
X140208Y708406D02*
X124968Y708406D01*
X124968Y663194D02*
X140208Y663194D01*
X189992Y708406D02*
X205232Y708406D01*
X205232Y663194D02*
X189992Y663194D01*
X715518Y378206D02*
X730758Y378206D01*
X730758Y332994D02*
X715518Y332994D01*
X780542Y378206D02*
X795782Y378206D01*
X795782Y332994D02*
X780542Y332994D01*
X610108Y378206D02*
X594868Y378206D01*
X594868Y332994D02*
X610108Y332994D01*
X659892Y378206D02*
X675132Y378206D01*
X675132Y332994D02*
X659892Y332994D01*
D19*
X913000Y777710D03*
X963000Y727710D03*
X913000Y677710D03*
X913000Y702710D03*
X913000Y752710D03*
D20*
X25400Y482600D03*
X50800Y482600D03*
X25400Y406400D03*
X50800Y406400D03*
X749300Y469900D03*
X774700Y469900D03*
X749300Y508000D03*
X774700Y508000D03*
D11*
X76200Y603250D03*
X76200Y558800D03*
D17*
X76200Y114300D03*
X50800Y139700D03*
X101600Y139700D03*
X76200Y254000D03*
X50800Y279400D03*
X101600Y279400D03*
D21*
X850900Y400050D03*
X952500Y400050D03*
D22*
X919226Y408178D02*
X919019Y408608D01*
X918801Y409032D01*
X918573Y409451D01*
X918335Y409864D01*
X918087Y410271D01*
X917828Y410672D01*
X917561Y411067D01*
X917283Y411454D01*
X916996Y411835D01*
X916700Y412209D01*
X916395Y412576D01*
X916081Y412935D01*
X915758Y413286D01*
X915427Y413629D01*
X915087Y413964D01*
X914740Y414290D01*
X914384Y414608D01*
X914021Y414917D01*
X913650Y415217D01*
X913273Y415508D01*
X912888Y415790D01*
X912496Y416062D01*
X912098Y416324D01*
X911693Y416577D01*
X911283Y416820D01*
X910866Y417052D01*
X910445Y417275D01*
X910017Y417486D01*
X909585Y417688D01*
X909148Y417879D01*
X908706Y418059D01*
X908260Y418228D01*
X907810Y418386D01*
X907357Y418533D01*
X906900Y418669D01*
X906439Y418794D01*
X905976Y418907D01*
X905510Y419009D01*
X905042Y419100D01*
X904572Y419179D01*
X904100Y419247D01*
X903626Y419303D01*
X903151Y419347D01*
X902676Y419380D01*
X902199Y419401D01*
X901722Y419410D01*
X901245Y419408D01*
X900769Y419394D01*
X900292Y419369D01*
X899817Y419332D01*
X899343Y419283D01*
X898870Y419223D01*
X898398Y419151D01*
X897929Y419067D01*
X897461Y418972D01*
X896996Y418866D01*
X896534Y418748D01*
X896075Y418619D01*
X895619Y418479D01*
X895167Y418328D01*
X894718Y418166D01*
X894274Y417993D01*
X893834Y417809D01*
X893399Y417614D01*
X892968Y417408D01*
X892543Y417193D01*
X892123Y416967D01*
X891709Y416730D01*
X891301Y416484D01*
X890898Y416227D01*
X890503Y415961D01*
X890114Y415686D01*
X889731Y415401D01*
X889356Y415106D01*
X888988Y414803D01*
X888628Y414490D01*
X888275Y414169D01*
X887931Y413840D01*
X887594Y413502D01*
X887266Y413155D01*
X886947Y412801D01*
X886636Y412440D01*
X886334Y412070D01*
X886041Y411694D01*
X885758Y411310D01*
X885484Y410920D01*
X885220Y410523D01*
X884965Y410120D01*
X884721Y409710D01*
X884486Y409295D01*
X884262Y408874D01*
X884048Y408448D01*
X883845Y408016D01*
X883652Y407580D01*
X883470Y407139D01*
X883299Y406694D01*
X883139Y406245D01*
X882990Y405792D01*
X882852Y405335D01*
X882725Y404876D01*
X882609Y404413D01*
X882505Y403948D01*
X882412Y403480D01*
X882331Y403010D01*
X882261Y402538D01*
X882203Y402065D01*
X882156Y401590D01*
X882121Y401115D01*
X882098Y400638D01*
X882086Y400161D01*
X882086Y399685D01*
X882098Y399208D01*
X882121Y398731D01*
X882156Y398256D01*
X882203Y397781D01*
X882261Y397308D01*
X882331Y396836D01*
X882412Y396366D01*
X882505Y395898D01*
X882609Y395433D01*
X882725Y394970D01*
X882852Y394511D01*
X882990Y394054D01*
X883139Y393601D01*
X883299Y393152D01*
X883470Y392707D01*
X883652Y392266D01*
X883845Y391830D01*
X884048Y391398D01*
X884262Y390972D01*
X884486Y390551D01*
X884721Y390136D01*
X884965Y389726D01*
X885220Y389323D01*
X885484Y388926D01*
X885758Y388536D01*
X886041Y388152D01*
X886334Y387776D01*
X886636Y387406D01*
X886947Y387045D01*
X887266Y386691D01*
X887594Y386344D01*
X887931Y386006D01*
X888275Y385677D01*
X888628Y385356D01*
X888988Y385043D01*
X889356Y384740D01*
X889731Y384445D01*
X890114Y384160D01*
X890503Y383885D01*
X890898Y383619D01*
X891301Y383362D01*
X891709Y383116D01*
X892123Y382879D01*
X892543Y382653D01*
X892968Y382438D01*
X893399Y382232D01*
X893834Y382037D01*
X894274Y381853D01*
X894718Y381680D01*
X895167Y381518D01*
X895619Y381367D01*
X896075Y381227D01*
X896534Y381098D01*
X896996Y380980D01*
X897461Y380874D01*
X897929Y380779D01*
X898398Y380695D01*
X898870Y380623D01*
X899343Y380563D01*
X899817Y380514D01*
X900292Y380477D01*
X900769Y380452D01*
X901245Y380438D01*
X901722Y380436D01*
X902199Y380445D01*
X902676Y380466D01*
X903151Y380499D01*
X903626Y380543D01*
X904100Y380599D01*
X904572Y380667D01*
X905042Y380746D01*
X905510Y380837D01*
X905976Y380939D01*
X906439Y381052D01*
X906900Y381177D01*
X907357Y381313D01*
X907810Y381460D01*
X908260Y381618D01*
X908706Y381787D01*
X909148Y381967D01*
X909585Y382158D01*
X910017Y382360D01*
X910445Y382571D01*
X910866Y382794D01*
X911283Y383026D01*
X911693Y383269D01*
X912098Y383522D01*
X912496Y383784D01*
X912888Y384056D01*
X913273Y384338D01*
X913650Y384629D01*
X914021Y384929D01*
X914384Y385238D01*
X914740Y385556D01*
X915087Y385882D01*
X915427Y386217D01*
X915758Y386560D01*
X916081Y386911D01*
X916395Y387270D01*
X916700Y387637D01*
X916996Y388011D01*
X917283Y388392D01*
X917561Y388779D01*
X917828Y389174D01*
X918087Y389575D01*
X918335Y389982D01*
X918573Y390395D01*
X918801Y390814D01*
X919019Y391238D01*
X919226Y391668D01*
X898902Y400050D02*
X898904Y400155D01*
X898910Y400259D01*
X898920Y400363D01*
X898934Y400467D01*
X898952Y400570D01*
X898973Y400672D01*
X898999Y400774D01*
X899028Y400874D01*
X899062Y400973D01*
X899099Y401071D01*
X899139Y401167D01*
X899184Y401262D01*
X899232Y401355D01*
X899283Y401446D01*
X899338Y401535D01*
X899396Y401622D01*
X899458Y401707D01*
X899522Y401789D01*
X899590Y401869D01*
X899661Y401946D01*
X899735Y402020D01*
X899811Y402091D01*
X899890Y402160D01*
X899972Y402225D01*
X900056Y402288D01*
X900142Y402347D01*
X900230Y402402D01*
X900321Y402455D01*
X900414Y402504D01*
X900508Y402549D01*
X900604Y402590D01*
X900701Y402628D01*
X900800Y402663D01*
X900900Y402693D01*
X901001Y402720D01*
X901103Y402742D01*
X901206Y402761D01*
X901310Y402776D01*
X901414Y402787D01*
X901518Y402794D01*
X901623Y402797D01*
X901727Y402796D01*
X901832Y402791D01*
X901936Y402782D01*
X902040Y402769D01*
X902143Y402752D01*
X902246Y402731D01*
X902347Y402707D01*
X902448Y402678D01*
X902547Y402646D01*
X902646Y402610D01*
X902742Y402570D01*
X902838Y402527D01*
X902931Y402480D01*
X903022Y402429D01*
X903112Y402375D01*
X903200Y402318D01*
X903285Y402257D01*
X903368Y402193D01*
X903448Y402126D01*
X903526Y402056D01*
X903601Y401983D01*
X903673Y401907D01*
X903742Y401829D01*
X903808Y401748D01*
X903871Y401665D01*
X903931Y401579D01*
X903988Y401491D01*
X904041Y401401D01*
X904091Y401309D01*
X904137Y401215D01*
X904179Y401119D01*
X904218Y401022D01*
X904253Y400924D01*
X904285Y400824D01*
X904312Y400723D01*
X904336Y400621D01*
X904356Y400518D01*
X904372Y400415D01*
X904384Y400311D01*
X904392Y400207D01*
X904396Y400102D01*
X904396Y399998D01*
X904392Y399893D01*
X904384Y399789D01*
X904372Y399685D01*
X904356Y399582D01*
X904336Y399479D01*
X904312Y399377D01*
X904285Y399276D01*
X904253Y399176D01*
X904218Y399078D01*
X904179Y398981D01*
X904137Y398885D01*
X904091Y398791D01*
X904041Y398699D01*
X903988Y398609D01*
X903931Y398521D01*
X903871Y398435D01*
X903808Y398352D01*
X903742Y398271D01*
X903673Y398193D01*
X903601Y398117D01*
X903526Y398044D01*
X903448Y397974D01*
X903368Y397907D01*
X903285Y397843D01*
X903200Y397782D01*
X903112Y397725D01*
X903023Y397671D01*
X902931Y397620D01*
X902838Y397573D01*
X902742Y397530D01*
X902646Y397490D01*
X902547Y397454D01*
X902448Y397422D01*
X902347Y397393D01*
X902246Y397369D01*
X902143Y397348D01*
X902040Y397331D01*
X901936Y397318D01*
X901832Y397309D01*
X901727Y397304D01*
X901623Y397303D01*
X901518Y397306D01*
X901414Y397313D01*
X901310Y397324D01*
X901206Y397339D01*
X901103Y397358D01*
X901001Y397380D01*
X900900Y397407D01*
X900800Y397437D01*
X900701Y397472D01*
X900604Y397510D01*
X900508Y397551D01*
X900414Y397596D01*
X900321Y397645D01*
X900230Y397698D01*
X900142Y397753D01*
X900056Y397812D01*
X899972Y397875D01*
X899890Y397940D01*
X899811Y398009D01*
X899735Y398080D01*
X899661Y398154D01*
X899590Y398231D01*
X899522Y398311D01*
X899458Y398393D01*
X899396Y398478D01*
X899338Y398565D01*
X899283Y398654D01*
X899232Y398745D01*
X899184Y398838D01*
X899139Y398933D01*
X899099Y399029D01*
X899062Y399127D01*
X899028Y399226D01*
X898999Y399326D01*
X898973Y399428D01*
X898952Y399530D01*
X898934Y399633D01*
X898920Y399737D01*
X898910Y399841D01*
X898904Y399945D01*
X898902Y400050D01*
D23*
X882396Y400050D02*
X850900Y400050D01*
X901700Y400050D02*
X950468Y400050D01*
D22*
X919226Y408178D02*
X919019Y408608D01*
X918801Y409032D01*
X918573Y409451D01*
X918335Y409864D01*
X918087Y410271D01*
X917828Y410672D01*
X917561Y411067D01*
X917283Y411454D01*
X916996Y411835D01*
X916700Y412209D01*
X916395Y412576D01*
X916081Y412935D01*
X915758Y413286D01*
X915427Y413629D01*
X915087Y413964D01*
X914740Y414290D01*
X914384Y414608D01*
X914021Y414917D01*
X913650Y415217D01*
X913273Y415508D01*
X912888Y415790D01*
X912496Y416062D01*
X912098Y416324D01*
X911693Y416577D01*
X911283Y416820D01*
X910866Y417052D01*
X910445Y417275D01*
X910017Y417486D01*
X909585Y417688D01*
X909148Y417879D01*
X908706Y418059D01*
X908260Y418228D01*
X907810Y418386D01*
X907357Y418533D01*
X906900Y418669D01*
X906439Y418794D01*
X905976Y418907D01*
X905510Y419009D01*
X905042Y419100D01*
X904572Y419179D01*
X904100Y419247D01*
X903626Y419303D01*
X903151Y419347D01*
X902676Y419380D01*
X902199Y419401D01*
X901722Y419410D01*
X901245Y419408D01*
X900769Y419394D01*
X900292Y419369D01*
X899817Y419332D01*
X899343Y419283D01*
X898870Y419223D01*
X898398Y419151D01*
X897929Y419067D01*
X897461Y418972D01*
X896996Y418866D01*
X896534Y418748D01*
X896075Y418619D01*
X895619Y418479D01*
X895167Y418328D01*
X894718Y418166D01*
X894274Y417993D01*
X893834Y417809D01*
X893399Y417614D01*
X892968Y417408D01*
X892543Y417193D01*
X892123Y416967D01*
X891709Y416730D01*
X891301Y416484D01*
X890898Y416227D01*
X890503Y415961D01*
X890114Y415686D01*
X889731Y415401D01*
X889356Y415106D01*
X888988Y414803D01*
X888628Y414490D01*
X888275Y414169D01*
X887931Y413840D01*
X887594Y413502D01*
X887266Y413155D01*
X886947Y412801D01*
X886636Y412440D01*
X886334Y412070D01*
X886041Y411694D01*
X885758Y411310D01*
X885484Y410920D01*
X885220Y410523D01*
X884965Y410120D01*
X884721Y409710D01*
X884486Y409295D01*
X884262Y408874D01*
X884048Y408448D01*
X883845Y408016D01*
X883652Y407580D01*
X883470Y407139D01*
X883299Y406694D01*
X883139Y406245D01*
X882990Y405792D01*
X882852Y405335D01*
X882725Y404876D01*
X882609Y404413D01*
X882505Y403948D01*
X882412Y403480D01*
X882331Y403010D01*
X882261Y402538D01*
X882203Y402065D01*
X882156Y401590D01*
X882121Y401115D01*
X882098Y400638D01*
X882086Y400161D01*
X882086Y399685D01*
X882098Y399208D01*
X882121Y398731D01*
X882156Y398256D01*
X882203Y397781D01*
X882261Y397308D01*
X882331Y396836D01*
X882412Y396366D01*
X882505Y395898D01*
X882609Y395433D01*
X882725Y394970D01*
X882852Y394511D01*
X882990Y394054D01*
X883139Y393601D01*
X883299Y393152D01*
X883470Y392707D01*
X883652Y392266D01*
X883845Y391830D01*
X884048Y391398D01*
X884262Y390972D01*
X884486Y390551D01*
X884721Y390136D01*
X884965Y389726D01*
X885220Y389323D01*
X885484Y388926D01*
X885758Y388536D01*
X886041Y388152D01*
X886334Y387776D01*
X886636Y387406D01*
X886947Y387045D01*
X887266Y386691D01*
X887594Y386344D01*
X887931Y386006D01*
X888275Y385677D01*
X888628Y385356D01*
X888988Y385043D01*
X889356Y384740D01*
X889731Y384445D01*
X890114Y384160D01*
X890503Y383885D01*
X890898Y383619D01*
X891301Y383362D01*
X891709Y383116D01*
X892123Y382879D01*
X892543Y382653D01*
X892968Y382438D01*
X893399Y382232D01*
X893834Y382037D01*
X894274Y381853D01*
X894718Y381680D01*
X895167Y381518D01*
X895619Y381367D01*
X896075Y381227D01*
X896534Y381098D01*
X896996Y380980D01*
X897461Y380874D01*
X897929Y380779D01*
X898398Y380695D01*
X898870Y380623D01*
X899343Y380563D01*
X899817Y380514D01*
X900292Y380477D01*
X900769Y380452D01*
X901245Y380438D01*
X901722Y380436D01*
X902199Y380445D01*
X902676Y380466D01*
X903151Y380499D01*
X903626Y380543D01*
X904100Y380599D01*
X904572Y380667D01*
X905042Y380746D01*
X905510Y380837D01*
X905976Y380939D01*
X906439Y381052D01*
X906900Y381177D01*
X907357Y381313D01*
X907810Y381460D01*
X908260Y381618D01*
X908706Y381787D01*
X909148Y381967D01*
X909585Y382158D01*
X910017Y382360D01*
X910445Y382571D01*
X910866Y382794D01*
X911283Y383026D01*
X911693Y383269D01*
X912098Y383522D01*
X912496Y383784D01*
X912888Y384056D01*
X913273Y384338D01*
X913650Y384629D01*
X914021Y384929D01*
X914384Y385238D01*
X914740Y385556D01*
X915087Y385882D01*
X915427Y386217D01*
X915758Y386560D01*
X916081Y386911D01*
X916395Y387270D01*
X916700Y387637D01*
X916996Y388011D01*
X917283Y388392D01*
X917561Y388779D01*
X917828Y389174D01*
X918087Y389575D01*
X918335Y389982D01*
X918573Y390395D01*
X918801Y390814D01*
X919019Y391238D01*
X919226Y391668D01*
X868934Y391414D02*
X869155Y390627D01*
X869396Y389845D01*
X869655Y389070D01*
X869934Y388301D01*
X870231Y387539D01*
X870547Y386785D01*
X870881Y386038D01*
X871234Y385300D01*
X871604Y384571D01*
X871993Y383852D01*
X872398Y383142D01*
X872821Y382442D01*
X873261Y381753D01*
X873718Y381074D01*
X874191Y380407D01*
X874681Y379752D01*
X875186Y379109D01*
X875707Y378479D01*
X876244Y377862D01*
X876795Y377258D01*
X877361Y376667D01*
X877941Y376091D01*
X878535Y375529D01*
X879143Y374982D01*
X879764Y374450D01*
X880397Y373933D01*
X881044Y373432D01*
X881702Y372947D01*
X882372Y372478D01*
X883053Y372026D01*
X883746Y371590D01*
X884448Y371172D01*
X885161Y370771D01*
X885883Y370388D01*
X886615Y370022D01*
X887355Y369674D01*
X888104Y369345D01*
X888860Y369034D01*
X889624Y368742D01*
X890395Y368469D01*
X891172Y368214D01*
X891955Y367979D01*
X892744Y367763D01*
X893537Y367566D01*
X894336Y367389D01*
X895138Y367232D01*
X895944Y367094D01*
X896753Y366976D01*
X897565Y366878D01*
X898379Y366799D01*
X899195Y366741D01*
X900012Y366703D01*
X900829Y366685D01*
X901647Y366686D01*
X902465Y366708D01*
X903281Y366750D01*
X904097Y366812D01*
X904910Y366894D01*
X905722Y366996D01*
X906531Y367117D01*
X907336Y367259D01*
X908138Y367420D01*
X908935Y367601D01*
X909728Y367801D01*
X910516Y368020D01*
X911298Y368259D01*
X912074Y368517D01*
X912844Y368794D01*
X913606Y369090D01*
X914361Y369404D01*
X915108Y369736D01*
X915847Y370087D01*
X916577Y370456D01*
X917297Y370843D01*
X918008Y371247D01*
X918709Y371668D01*
X919399Y372107D01*
X920079Y372562D01*
X920747Y373034D01*
X921403Y373522D01*
X922047Y374026D01*
X922678Y374545D01*
X923297Y375080D01*
X923902Y375630D01*
X924494Y376195D01*
X925071Y376773D01*
X925635Y377366D01*
X926183Y377973D01*
X926717Y378593D01*
X927235Y379225D01*
X927737Y379870D01*
X928224Y380528D01*
X928694Y381197D01*
X929148Y381877D01*
X929585Y382568D01*
X930005Y383270D01*
X930407Y383982D01*
X930792Y384703D01*
X931159Y385434D01*
X931509Y386173D01*
X931840Y386921D01*
X932152Y387677D01*
X932446Y388440D01*
X932721Y389210D01*
X932977Y389987D01*
X933214Y390769D01*
X933432Y391558D01*
X933631Y392351D01*
X933810Y393149D01*
X933969Y393951D01*
X934108Y394757D01*
X934228Y395566D01*
X934328Y396377D01*
X934408Y397191D01*
X934468Y398007D01*
X934508Y398824D01*
X934528Y399641D01*
X934528Y400459D01*
X934508Y401276D01*
X934468Y402093D01*
X934408Y402909D01*
X934328Y403723D01*
X934228Y404534D01*
X934108Y405343D01*
X933969Y406149D01*
X933810Y406951D01*
X933631Y407749D01*
X933432Y408542D01*
X933214Y409331D01*
X932977Y410113D01*
X932721Y410890D01*
X932446Y411660D01*
X932152Y412423D01*
X931840Y413179D01*
X931509Y413927D01*
X931159Y414666D01*
X930792Y415397D01*
X930407Y416118D01*
X930005Y416830D01*
X929585Y417532D01*
X929148Y418223D01*
X928694Y418903D01*
X928224Y419572D01*
X927737Y420230D01*
X927235Y420875D01*
X926717Y421507D01*
X926183Y422127D01*
X925635Y422734D01*
X925071Y423327D01*
X924494Y423905D01*
X923902Y424470D01*
X923297Y425020D01*
X922678Y425555D01*
X922047Y426074D01*
X921403Y426578D01*
X920747Y427066D01*
X920079Y427538D01*
X919399Y427993D01*
X918709Y428432D01*
X918008Y428853D01*
X917297Y429257D01*
X916577Y429644D01*
X915847Y430013D01*
X915108Y430364D01*
X914361Y430696D01*
X913606Y431010D01*
X912844Y431306D01*
X912074Y431583D01*
X911298Y431841D01*
X910516Y432080D01*
X909728Y432299D01*
X908935Y432499D01*
X908138Y432680D01*
X907336Y432841D01*
X906531Y432983D01*
X905722Y433104D01*
X904910Y433206D01*
X904097Y433288D01*
X903281Y433350D01*
X902465Y433392D01*
X901647Y433414D01*
X900829Y433415D01*
X900012Y433397D01*
X899195Y433359D01*
X898379Y433301D01*
X897565Y433222D01*
X896753Y433124D01*
X895944Y433006D01*
X895138Y432868D01*
X894336Y432711D01*
X893537Y432534D01*
X892744Y432337D01*
X891955Y432121D01*
X891172Y431886D01*
X890395Y431631D01*
X889624Y431358D01*
X888860Y431066D01*
X888104Y430755D01*
X887355Y430426D01*
X886615Y430078D01*
X885883Y429712D01*
X885161Y429329D01*
X884448Y428928D01*
X883746Y428510D01*
X883053Y428074D01*
X882372Y427622D01*
X881702Y427153D01*
X881044Y426668D01*
X880397Y426167D01*
X879764Y425650D01*
X879143Y425118D01*
X878535Y424571D01*
X877941Y424009D01*
X877361Y423433D01*
X876795Y422842D01*
X876244Y422238D01*
X875707Y421621D01*
X875186Y420991D01*
X874681Y420348D01*
X874191Y419693D01*
X873718Y419026D01*
X873261Y418347D01*
X872821Y417658D01*
X872398Y416958D01*
X871993Y416248D01*
X871604Y415529D01*
X871234Y414800D01*
X870881Y414062D01*
X870547Y413315D01*
X870231Y412561D01*
X869934Y411799D01*
X869655Y411030D01*
X869396Y410255D01*
X869155Y409473D01*
X868934Y408686D01*
D21*
X850900Y311150D03*
X952500Y311150D03*
D22*
X919226Y319278D02*
X919019Y319708D01*
X918801Y320132D01*
X918573Y320551D01*
X918335Y320964D01*
X918087Y321371D01*
X917828Y321772D01*
X917561Y322167D01*
X917283Y322554D01*
X916996Y322935D01*
X916700Y323309D01*
X916395Y323676D01*
X916081Y324035D01*
X915758Y324386D01*
X915427Y324729D01*
X915087Y325064D01*
X914740Y325390D01*
X914384Y325708D01*
X914021Y326017D01*
X913650Y326317D01*
X913273Y326608D01*
X912888Y326890D01*
X912496Y327162D01*
X912098Y327424D01*
X911693Y327677D01*
X911283Y327920D01*
X910866Y328152D01*
X910445Y328375D01*
X910017Y328586D01*
X909585Y328788D01*
X909148Y328979D01*
X908706Y329159D01*
X908260Y329328D01*
X907810Y329486D01*
X907357Y329633D01*
X906900Y329769D01*
X906439Y329894D01*
X905976Y330007D01*
X905510Y330109D01*
X905042Y330200D01*
X904572Y330279D01*
X904100Y330347D01*
X903626Y330403D01*
X903151Y330447D01*
X902676Y330480D01*
X902199Y330501D01*
X901722Y330510D01*
X901245Y330508D01*
X900769Y330494D01*
X900292Y330469D01*
X899817Y330432D01*
X899343Y330383D01*
X898870Y330323D01*
X898398Y330251D01*
X897929Y330167D01*
X897461Y330072D01*
X896996Y329966D01*
X896534Y329848D01*
X896075Y329719D01*
X895619Y329579D01*
X895167Y329428D01*
X894718Y329266D01*
X894274Y329093D01*
X893834Y328909D01*
X893399Y328714D01*
X892968Y328508D01*
X892543Y328293D01*
X892123Y328067D01*
X891709Y327830D01*
X891301Y327584D01*
X890898Y327327D01*
X890503Y327061D01*
X890114Y326786D01*
X889731Y326501D01*
X889356Y326206D01*
X888988Y325903D01*
X888628Y325590D01*
X888275Y325269D01*
X887931Y324940D01*
X887594Y324602D01*
X887266Y324255D01*
X886947Y323901D01*
X886636Y323540D01*
X886334Y323170D01*
X886041Y322794D01*
X885758Y322410D01*
X885484Y322020D01*
X885220Y321623D01*
X884965Y321220D01*
X884721Y320810D01*
X884486Y320395D01*
X884262Y319974D01*
X884048Y319548D01*
X883845Y319116D01*
X883652Y318680D01*
X883470Y318239D01*
X883299Y317794D01*
X883139Y317345D01*
X882990Y316892D01*
X882852Y316435D01*
X882725Y315976D01*
X882609Y315513D01*
X882505Y315048D01*
X882412Y314580D01*
X882331Y314110D01*
X882261Y313638D01*
X882203Y313165D01*
X882156Y312690D01*
X882121Y312215D01*
X882098Y311738D01*
X882086Y311261D01*
X882086Y310785D01*
X882098Y310308D01*
X882121Y309831D01*
X882156Y309356D01*
X882203Y308881D01*
X882261Y308408D01*
X882331Y307936D01*
X882412Y307466D01*
X882505Y306998D01*
X882609Y306533D01*
X882725Y306070D01*
X882852Y305611D01*
X882990Y305154D01*
X883139Y304701D01*
X883299Y304252D01*
X883470Y303807D01*
X883652Y303366D01*
X883845Y302930D01*
X884048Y302498D01*
X884262Y302072D01*
X884486Y301651D01*
X884721Y301236D01*
X884965Y300826D01*
X885220Y300423D01*
X885484Y300026D01*
X885758Y299636D01*
X886041Y299252D01*
X886334Y298876D01*
X886636Y298506D01*
X886947Y298145D01*
X887266Y297791D01*
X887594Y297444D01*
X887931Y297106D01*
X888275Y296777D01*
X888628Y296456D01*
X888988Y296143D01*
X889356Y295840D01*
X889731Y295545D01*
X890114Y295260D01*
X890503Y294985D01*
X890898Y294719D01*
X891301Y294462D01*
X891709Y294216D01*
X892123Y293979D01*
X892543Y293753D01*
X892968Y293538D01*
X893399Y293332D01*
X893834Y293137D01*
X894274Y292953D01*
X894718Y292780D01*
X895167Y292618D01*
X895619Y292467D01*
X896075Y292327D01*
X896534Y292198D01*
X896996Y292080D01*
X897461Y291974D01*
X897929Y291879D01*
X898398Y291795D01*
X898870Y291723D01*
X899343Y291663D01*
X899817Y291614D01*
X900292Y291577D01*
X900769Y291552D01*
X901245Y291538D01*
X901722Y291536D01*
X902199Y291545D01*
X902676Y291566D01*
X903151Y291599D01*
X903626Y291643D01*
X904100Y291699D01*
X904572Y291767D01*
X905042Y291846D01*
X905510Y291937D01*
X905976Y292039D01*
X906439Y292152D01*
X906900Y292277D01*
X907357Y292413D01*
X907810Y292560D01*
X908260Y292718D01*
X908706Y292887D01*
X909148Y293067D01*
X909585Y293258D01*
X910017Y293460D01*
X910445Y293671D01*
X910866Y293894D01*
X911283Y294126D01*
X911693Y294369D01*
X912098Y294622D01*
X912496Y294884D01*
X912888Y295156D01*
X913273Y295438D01*
X913650Y295729D01*
X914021Y296029D01*
X914384Y296338D01*
X914740Y296656D01*
X915087Y296982D01*
X915427Y297317D01*
X915758Y297660D01*
X916081Y298011D01*
X916395Y298370D01*
X916700Y298737D01*
X916996Y299111D01*
X917283Y299492D01*
X917561Y299879D01*
X917828Y300274D01*
X918087Y300675D01*
X918335Y301082D01*
X918573Y301495D01*
X918801Y301914D01*
X919019Y302338D01*
X919226Y302768D01*
X898902Y311150D02*
X898904Y311255D01*
X898910Y311359D01*
X898920Y311463D01*
X898934Y311567D01*
X898952Y311670D01*
X898973Y311772D01*
X898999Y311874D01*
X899028Y311974D01*
X899062Y312073D01*
X899099Y312171D01*
X899139Y312267D01*
X899184Y312362D01*
X899232Y312455D01*
X899283Y312546D01*
X899338Y312635D01*
X899396Y312722D01*
X899458Y312807D01*
X899522Y312889D01*
X899590Y312969D01*
X899661Y313046D01*
X899735Y313120D01*
X899811Y313191D01*
X899890Y313260D01*
X899972Y313325D01*
X900056Y313388D01*
X900142Y313447D01*
X900230Y313502D01*
X900321Y313555D01*
X900414Y313604D01*
X900508Y313649D01*
X900604Y313690D01*
X900701Y313728D01*
X900800Y313763D01*
X900900Y313793D01*
X901001Y313820D01*
X901103Y313842D01*
X901206Y313861D01*
X901310Y313876D01*
X901414Y313887D01*
X901518Y313894D01*
X901623Y313897D01*
X901727Y313896D01*
X901832Y313891D01*
X901936Y313882D01*
X902040Y313869D01*
X902143Y313852D01*
X902246Y313831D01*
X902347Y313807D01*
X902448Y313778D01*
X902547Y313746D01*
X902646Y313710D01*
X902742Y313670D01*
X902838Y313627D01*
X902931Y313580D01*
X903022Y313529D01*
X903112Y313475D01*
X903200Y313418D01*
X903285Y313357D01*
X903368Y313293D01*
X903448Y313226D01*
X903526Y313156D01*
X903601Y313083D01*
X903673Y313007D01*
X903742Y312929D01*
X903808Y312848D01*
X903871Y312765D01*
X903931Y312679D01*
X903988Y312591D01*
X904041Y312501D01*
X904091Y312409D01*
X904137Y312315D01*
X904179Y312219D01*
X904218Y312122D01*
X904253Y312024D01*
X904285Y311924D01*
X904312Y311823D01*
X904336Y311721D01*
X904356Y311618D01*
X904372Y311515D01*
X904384Y311411D01*
X904392Y311307D01*
X904396Y311202D01*
X904396Y311098D01*
X904392Y310993D01*
X904384Y310889D01*
X904372Y310785D01*
X904356Y310682D01*
X904336Y310579D01*
X904312Y310477D01*
X904285Y310376D01*
X904253Y310276D01*
X904218Y310178D01*
X904179Y310081D01*
X904137Y309985D01*
X904091Y309891D01*
X904041Y309799D01*
X903988Y309709D01*
X903931Y309621D01*
X903871Y309535D01*
X903808Y309452D01*
X903742Y309371D01*
X903673Y309293D01*
X903601Y309217D01*
X903526Y309144D01*
X903448Y309074D01*
X903368Y309007D01*
X903285Y308943D01*
X903200Y308882D01*
X903112Y308825D01*
X903023Y308771D01*
X902931Y308720D01*
X902838Y308673D01*
X902742Y308630D01*
X902646Y308590D01*
X902547Y308554D01*
X902448Y308522D01*
X902347Y308493D01*
X902246Y308469D01*
X902143Y308448D01*
X902040Y308431D01*
X901936Y308418D01*
X901832Y308409D01*
X901727Y308404D01*
X901623Y308403D01*
X901518Y308406D01*
X901414Y308413D01*
X901310Y308424D01*
X901206Y308439D01*
X901103Y308458D01*
X901001Y308480D01*
X900900Y308507D01*
X900800Y308537D01*
X900701Y308572D01*
X900604Y308610D01*
X900508Y308651D01*
X900414Y308696D01*
X900321Y308745D01*
X900230Y308798D01*
X900142Y308853D01*
X900056Y308912D01*
X899972Y308975D01*
X899890Y309040D01*
X899811Y309109D01*
X899735Y309180D01*
X899661Y309254D01*
X899590Y309331D01*
X899522Y309411D01*
X899458Y309493D01*
X899396Y309578D01*
X899338Y309665D01*
X899283Y309754D01*
X899232Y309845D01*
X899184Y309938D01*
X899139Y310033D01*
X899099Y310129D01*
X899062Y310227D01*
X899028Y310326D01*
X898999Y310426D01*
X898973Y310528D01*
X898952Y310630D01*
X898934Y310733D01*
X898920Y310837D01*
X898910Y310941D01*
X898904Y311045D01*
X898902Y311150D01*
D23*
X882396Y311150D02*
X850900Y311150D01*
X901700Y311150D02*
X950468Y311150D01*
D22*
X919226Y319278D02*
X919019Y319708D01*
X918801Y320132D01*
X918573Y320551D01*
X918335Y320964D01*
X918087Y321371D01*
X917828Y321772D01*
X917561Y322167D01*
X917283Y322554D01*
X916996Y322935D01*
X916700Y323309D01*
X916395Y323676D01*
X916081Y324035D01*
X915758Y324386D01*
X915427Y324729D01*
X915087Y325064D01*
X914740Y325390D01*
X914384Y325708D01*
X914021Y326017D01*
X913650Y326317D01*
X913273Y326608D01*
X912888Y326890D01*
X912496Y327162D01*
X912098Y327424D01*
X911693Y327677D01*
X911283Y327920D01*
X910866Y328152D01*
X910445Y328375D01*
X910017Y328586D01*
X909585Y328788D01*
X909148Y328979D01*
X908706Y329159D01*
X908260Y329328D01*
X907810Y329486D01*
X907357Y329633D01*
X906900Y329769D01*
X906439Y329894D01*
X905976Y330007D01*
X905510Y330109D01*
X905042Y330200D01*
X904572Y330279D01*
X904100Y330347D01*
X903626Y330403D01*
X903151Y330447D01*
X902676Y330480D01*
X902199Y330501D01*
X901722Y330510D01*
X901245Y330508D01*
X900769Y330494D01*
X900292Y330469D01*
X899817Y330432D01*
X899343Y330383D01*
X898870Y330323D01*
X898398Y330251D01*
X897929Y330167D01*
X897461Y330072D01*
X896996Y329966D01*
X896534Y329848D01*
X896075Y329719D01*
X895619Y329579D01*
X895167Y329428D01*
X894718Y329266D01*
X894274Y329093D01*
X893834Y328909D01*
X893399Y328714D01*
X892968Y328508D01*
X892543Y328293D01*
X892123Y328067D01*
X891709Y327830D01*
X891301Y327584D01*
X890898Y327327D01*
X890503Y327061D01*
X890114Y326786D01*
X889731Y326501D01*
X889356Y326206D01*
X888988Y325903D01*
X888628Y325590D01*
X888275Y325269D01*
X887931Y324940D01*
X887594Y324602D01*
X887266Y324255D01*
X886947Y323901D01*
X886636Y323540D01*
X886334Y323170D01*
X886041Y322794D01*
X885758Y322410D01*
X885484Y322020D01*
X885220Y321623D01*
X884965Y321220D01*
X884721Y320810D01*
X884486Y320395D01*
X884262Y319974D01*
X884048Y319548D01*
X883845Y319116D01*
X883652Y318680D01*
X883470Y318239D01*
X883299Y317794D01*
X883139Y317345D01*
X882990Y316892D01*
X882852Y316435D01*
X882725Y315976D01*
X882609Y315513D01*
X882505Y315048D01*
X882412Y314580D01*
X882331Y314110D01*
X882261Y313638D01*
X882203Y313165D01*
X882156Y312690D01*
X882121Y312215D01*
X882098Y311738D01*
X882086Y311261D01*
X882086Y310785D01*
X882098Y310308D01*
X882121Y309831D01*
X882156Y309356D01*
X882203Y308881D01*
X882261Y308408D01*
X882331Y307936D01*
X882412Y307466D01*
X882505Y306998D01*
X882609Y306533D01*
X882725Y306070D01*
X882852Y305611D01*
X882990Y305154D01*
X883139Y304701D01*
X883299Y304252D01*
X883470Y303807D01*
X883652Y303366D01*
X883845Y302930D01*
X884048Y302498D01*
X884262Y302072D01*
X884486Y301651D01*
X884721Y301236D01*
X884965Y300826D01*
X885220Y300423D01*
X885484Y300026D01*
X885758Y299636D01*
X886041Y299252D01*
X886334Y298876D01*
X886636Y298506D01*
X886947Y298145D01*
X887266Y297791D01*
X887594Y297444D01*
X887931Y297106D01*
X888275Y296777D01*
X888628Y296456D01*
X888988Y296143D01*
X889356Y295840D01*
X889731Y295545D01*
X890114Y295260D01*
X890503Y294985D01*
X890898Y294719D01*
X891301Y294462D01*
X891709Y294216D01*
X892123Y293979D01*
X892543Y293753D01*
X892968Y293538D01*
X893399Y293332D01*
X893834Y293137D01*
X894274Y292953D01*
X894718Y292780D01*
X895167Y292618D01*
X895619Y292467D01*
X896075Y292327D01*
X896534Y292198D01*
X896996Y292080D01*
X897461Y291974D01*
X897929Y291879D01*
X898398Y291795D01*
X898870Y291723D01*
X899343Y291663D01*
X899817Y291614D01*
X900292Y291577D01*
X900769Y291552D01*
X901245Y291538D01*
X901722Y291536D01*
X902199Y291545D01*
X902676Y291566D01*
X903151Y291599D01*
X903626Y291643D01*
X904100Y291699D01*
X904572Y291767D01*
X905042Y291846D01*
X905510Y291937D01*
X905976Y292039D01*
X906439Y292152D01*
X906900Y292277D01*
X907357Y292413D01*
X907810Y292560D01*
X908260Y292718D01*
X908706Y292887D01*
X909148Y293067D01*
X909585Y293258D01*
X910017Y293460D01*
X910445Y293671D01*
X910866Y293894D01*
X911283Y294126D01*
X911693Y294369D01*
X912098Y294622D01*
X912496Y294884D01*
X912888Y295156D01*
X913273Y295438D01*
X913650Y295729D01*
X914021Y296029D01*
X914384Y296338D01*
X914740Y296656D01*
X915087Y296982D01*
X915427Y297317D01*
X915758Y297660D01*
X916081Y298011D01*
X916395Y298370D01*
X916700Y298737D01*
X916996Y299111D01*
X917283Y299492D01*
X917561Y299879D01*
X917828Y300274D01*
X918087Y300675D01*
X918335Y301082D01*
X918573Y301495D01*
X918801Y301914D01*
X919019Y302338D01*
X919226Y302768D01*
X868934Y302514D02*
X869155Y301727D01*
X869396Y300945D01*
X869655Y300170D01*
X869934Y299401D01*
X870231Y298639D01*
X870547Y297885D01*
X870881Y297138D01*
X871234Y296400D01*
X871604Y295671D01*
X871993Y294952D01*
X872398Y294242D01*
X872821Y293542D01*
X873261Y292853D01*
X873718Y292174D01*
X874191Y291507D01*
X874681Y290852D01*
X875186Y290209D01*
X875707Y289579D01*
X876244Y288962D01*
X876795Y288358D01*
X877361Y287767D01*
X877941Y287191D01*
X878535Y286629D01*
X879143Y286082D01*
X879764Y285550D01*
X880397Y285033D01*
X881044Y284532D01*
X881702Y284047D01*
X882372Y283578D01*
X883053Y283126D01*
X883746Y282690D01*
X884448Y282272D01*
X885161Y281871D01*
X885883Y281488D01*
X886615Y281122D01*
X887355Y280774D01*
X888104Y280445D01*
X888860Y280134D01*
X889624Y279842D01*
X890395Y279569D01*
X891172Y279314D01*
X891955Y279079D01*
X892744Y278863D01*
X893537Y278666D01*
X894336Y278489D01*
X895138Y278332D01*
X895944Y278194D01*
X896753Y278076D01*
X897565Y277978D01*
X898379Y277899D01*
X899195Y277841D01*
X900012Y277803D01*
X900829Y277785D01*
X901647Y277786D01*
X902465Y277808D01*
X903281Y277850D01*
X904097Y277912D01*
X904910Y277994D01*
X905722Y278096D01*
X906531Y278217D01*
X907336Y278359D01*
X908138Y278520D01*
X908935Y278701D01*
X909728Y278901D01*
X910516Y279120D01*
X911298Y279359D01*
X912074Y279617D01*
X912844Y279894D01*
X913606Y280190D01*
X914361Y280504D01*
X915108Y280836D01*
X915847Y281187D01*
X916577Y281556D01*
X917297Y281943D01*
X918008Y282347D01*
X918709Y282768D01*
X919399Y283207D01*
X920079Y283662D01*
X920747Y284134D01*
X921403Y284622D01*
X922047Y285126D01*
X922678Y285645D01*
X923297Y286180D01*
X923902Y286730D01*
X924494Y287295D01*
X925071Y287873D01*
X925635Y288466D01*
X926183Y289073D01*
X926717Y289693D01*
X927235Y290325D01*
X927737Y290970D01*
X928224Y291628D01*
X928694Y292297D01*
X929148Y292977D01*
X929585Y293668D01*
X930005Y294370D01*
X930407Y295082D01*
X930792Y295803D01*
X931159Y296534D01*
X931509Y297273D01*
X931840Y298021D01*
X932152Y298777D01*
X932446Y299540D01*
X932721Y300310D01*
X932977Y301087D01*
X933214Y301869D01*
X933432Y302658D01*
X933631Y303451D01*
X933810Y304249D01*
X933969Y305051D01*
X934108Y305857D01*
X934228Y306666D01*
X934328Y307477D01*
X934408Y308291D01*
X934468Y309107D01*
X934508Y309924D01*
X934528Y310741D01*
X934528Y311559D01*
X934508Y312376D01*
X934468Y313193D01*
X934408Y314009D01*
X934328Y314823D01*
X934228Y315634D01*
X934108Y316443D01*
X933969Y317249D01*
X933810Y318051D01*
X933631Y318849D01*
X933432Y319642D01*
X933214Y320431D01*
X932977Y321213D01*
X932721Y321990D01*
X932446Y322760D01*
X932152Y323523D01*
X931840Y324279D01*
X931509Y325027D01*
X931159Y325766D01*
X930792Y326497D01*
X930407Y327218D01*
X930005Y327930D01*
X929585Y328632D01*
X929148Y329323D01*
X928694Y330003D01*
X928224Y330672D01*
X927737Y331330D01*
X927235Y331975D01*
X926717Y332607D01*
X926183Y333227D01*
X925635Y333834D01*
X925071Y334427D01*
X924494Y335005D01*
X923902Y335570D01*
X923297Y336120D01*
X922678Y336655D01*
X922047Y337174D01*
X921403Y337678D01*
X920747Y338166D01*
X920079Y338638D01*
X919399Y339093D01*
X918709Y339532D01*
X918008Y339953D01*
X917297Y340357D01*
X916577Y340744D01*
X915847Y341113D01*
X915108Y341464D01*
X914361Y341796D01*
X913606Y342110D01*
X912844Y342406D01*
X912074Y342683D01*
X911298Y342941D01*
X910516Y343180D01*
X909728Y343399D01*
X908935Y343599D01*
X908138Y343780D01*
X907336Y343941D01*
X906531Y344083D01*
X905722Y344204D01*
X904910Y344306D01*
X904097Y344388D01*
X903281Y344450D01*
X902465Y344492D01*
X901647Y344514D01*
X900829Y344515D01*
X900012Y344497D01*
X899195Y344459D01*
X898379Y344401D01*
X897565Y344322D01*
X896753Y344224D01*
X895944Y344106D01*
X895138Y343968D01*
X894336Y343811D01*
X893537Y343634D01*
X892744Y343437D01*
X891955Y343221D01*
X891172Y342986D01*
X890395Y342731D01*
X889624Y342458D01*
X888860Y342166D01*
X888104Y341855D01*
X887355Y341526D01*
X886615Y341178D01*
X885883Y340812D01*
X885161Y340429D01*
X884448Y340028D01*
X883746Y339610D01*
X883053Y339174D01*
X882372Y338722D01*
X881702Y338253D01*
X881044Y337768D01*
X880397Y337267D01*
X879764Y336750D01*
X879143Y336218D01*
X878535Y335671D01*
X877941Y335109D01*
X877361Y334533D01*
X876795Y333942D01*
X876244Y333338D01*
X875707Y332721D01*
X875186Y332091D01*
X874681Y331448D01*
X874191Y330793D01*
X873718Y330126D01*
X873261Y329447D01*
X872821Y328758D01*
X872398Y328058D01*
X871993Y327348D01*
X871604Y326629D01*
X871234Y325900D01*
X870881Y325162D01*
X870547Y324415D01*
X870231Y323661D01*
X869934Y322899D01*
X869655Y322130D01*
X869396Y321355D01*
X869155Y320573D01*
X868934Y319786D01*
D24*
X705250Y553250D03*
X755250Y553250D03*
X730250Y653250D03*
D25*
X317500Y241300D03*
X368300Y241300D03*
D26*
X419100Y247650D03*
D25*
X444500Y241300D03*
X520700Y241300D03*
X571500Y241300D03*
X622300Y241300D03*
X723900Y241300D03*
D26*
X673100Y247650D03*
X749300Y247650D03*
D25*
X774700Y241300D03*
X850900Y241300D03*
D27*
X341249Y85979D03*
D28*
X322009Y182753D03*
D29*
X381254Y193675D03*
D30*
X461912Y193548D03*
D29*
X621792Y193675D03*
D31*
X782130Y193675D03*
D32*
X701802Y193675D03*
D27*
X421513Y85979D03*
X501523Y85979D03*
D33*
X520700Y180594D03*
D34*
X562420Y191770D03*
D35*
X562356Y94996D03*
D36*
X593979Y85979D03*
D37*
X661670Y85979D03*
D38*
X741807Y85979D03*
X822071Y85979D03*
D39*
X841375Y178181D03*
D23*
X317500Y228600D02*
X317500Y241300D01*
X368300Y241300D02*
X368300Y228600D01*
X444500Y228600D02*
X444500Y241300D01*
X520700Y241300D02*
X520700Y228600D01*
X571500Y228600D02*
X571500Y241300D01*
X622300Y241300D02*
X622300Y228600D01*
X723900Y228600D02*
X723900Y241300D01*
X774700Y241300D02*
X774700Y228600D01*
X850900Y228600D02*
X850900Y241300D01*
X421640Y237236D02*
X421640Y145034D01*
X421640Y237236D02*
X419100Y239776D01*
X419100Y248412D01*
X661924Y236728D02*
X661924Y144780D01*
X661924Y236728D02*
X664210Y240538D01*
X669290Y240538D01*
X673100Y243332D01*
X741934Y238252D02*
X741934Y144526D01*
X741934Y238252D02*
X749300Y243332D01*
D40*
X292100Y457200D02*
X292100Y482600D01*
X292100Y457200D02*
X317500Y431800D01*
X317500Y406400D01*
D41*
X952500Y400050D03*
X952500Y311150D03*
D42*
X292100Y406400D02*
X292100Y431800D01*
D41*
X114300Y628650D03*
D42*
X146050Y546100D02*
X146050Y520700D01*
X120650Y495300D01*
X120650Y469900D01*
X107964Y457214D01*
D41*
X101600Y450850D03*
D42*
X107964Y457214D01*
X508000Y584200D02*
X508000Y635000D01*
X488950Y654050D01*
X371475Y654050D01*
X355600Y638175D01*
X355600Y635000D01*
X355600Y584200D01*
X355600Y533400D01*
X355600Y635000D02*
X336550Y654050D01*
X285750Y654050D02*
X254000Y685800D01*
X285750Y654050D02*
X336550Y654050D01*
X254000Y685800D02*
X241300Y673100D01*
X241300Y647700D01*
X171450Y577850D02*
X171450Y571500D01*
X146050Y546100D01*
X171450Y577850D02*
X241300Y647700D01*
X533400Y660400D02*
X533400Y749300D01*
X508000Y774700D01*
X469900Y774700D01*
X444500Y749300D01*
X342900Y495300D02*
X342900Y482600D01*
X342900Y495300D02*
X336550Y502920D01*
X285750Y502920D01*
X279400Y495300D01*
X279400Y444500D01*
X292100Y431800D01*
X508000Y635000D02*
X533400Y660400D01*
X114300Y628650D02*
X114300Y619650D01*
X114300Y609600D01*
X107950Y603250D01*
X76200Y603250D01*
X114300Y619650D02*
X117128Y627650D01*
X114300Y628650D01*
X111472Y627650D02*
X114300Y619650D01*
X111472Y627650D02*
X114300Y628650D01*
X107964Y457214D02*
X100307Y453557D01*
X101600Y450850D01*
X104307Y449557D02*
X107964Y457214D01*
X104307Y449557D02*
X101600Y450850D01*
X101600Y330200D02*
X101600Y279400D01*
X101600Y330200D02*
X25400Y406400D01*
X25400Y215900D01*
X101600Y139700D01*
X342900Y381000D02*
X342900Y406400D01*
X342900Y381000D02*
X330200Y368300D01*
X330200Y349250D01*
X381000Y349250D02*
X381000Y368300D01*
X368300Y381000D01*
X368300Y406400D01*
X241300Y760730D02*
X241300Y774700D01*
X228600Y787400D01*
X25400Y787400D02*
X12700Y774700D01*
X25400Y787400D02*
X228600Y787400D01*
X57150Y501650D02*
X50800Y495300D01*
X12700Y711200D02*
X12700Y774700D01*
X12700Y711200D02*
X31750Y692150D01*
X44450Y692150D01*
X63500Y673100D01*
X50800Y495300D02*
X50800Y482600D01*
X57150Y501650D02*
X57150Y615950D01*
X63500Y622300D01*
X63500Y673100D01*
D41*
X644525Y425450D03*
D42*
X254000Y635000D02*
X165100Y546100D01*
X165100Y482600D01*
D41*
X850900Y260350D03*
D42*
X838200Y425450D02*
X653525Y425450D01*
X644525Y425450D01*
X838200Y425450D02*
X850900Y412750D01*
X850900Y254000D02*
X850900Y251350D01*
X850900Y254000D02*
X850900Y260350D01*
X850900Y400050D02*
X850900Y409050D01*
D41*
X850900Y400050D03*
D42*
X850900Y409050D02*
X850900Y412750D01*
X653525Y425450D02*
X645525Y428278D01*
X644525Y425450D01*
X645525Y422622D02*
X653525Y425450D01*
X645525Y422622D02*
X644525Y425450D01*
X853728Y259350D02*
X850900Y251350D01*
X853728Y259350D02*
X850900Y260350D01*
X848072Y259350D02*
X850900Y251350D01*
X848072Y259350D02*
X850900Y260350D01*
X848072Y401050D02*
X850900Y409050D01*
X848072Y401050D02*
X850900Y400050D01*
X853728Y401050D02*
X850900Y409050D01*
X853728Y401050D02*
X850900Y400050D01*
X850900Y251350D02*
X850900Y241300D01*
X139700Y406400D02*
X114300Y431800D01*
X107950Y501650D02*
X127000Y520700D01*
X107950Y501650D02*
X107950Y482600D01*
X127000Y635000D02*
X107950Y654050D01*
X107950Y685800D01*
D41*
X127000Y546100D03*
D42*
X127000Y555100D01*
X127000Y635000D01*
X127000Y546100D02*
X127000Y537100D01*
X127000Y520700D01*
X38100Y711200D02*
X50800Y723900D01*
X88900Y723900D01*
X25400Y476250D02*
X38100Y463550D01*
X88900Y463550D01*
X107950Y482600D01*
X114300Y431800D02*
X25400Y431800D01*
X12700Y444500D01*
X12700Y469900D01*
X132588Y708406D02*
X197612Y708406D01*
X132588Y708406D02*
X127000Y708406D01*
X104394Y708406D01*
X88900Y723900D01*
X107950Y685800D02*
X127000Y704850D01*
X127000Y708406D01*
X25400Y482600D02*
X25400Y476250D01*
X25400Y482600D02*
X12700Y469900D01*
X124172Y547100D02*
X127000Y555100D01*
X124172Y547100D02*
X127000Y546100D01*
X129828Y547100D02*
X127000Y555100D01*
X129828Y547100D02*
X127000Y546100D01*
X129828Y545100D02*
X127000Y537100D01*
X129828Y545100D02*
X127000Y546100D01*
X124172Y545100D02*
X127000Y537100D01*
X124172Y545100D02*
X127000Y546100D01*
X381000Y509905D02*
X393700Y520700D01*
X381000Y509905D02*
X228600Y509905D01*
X215900Y495300D01*
X215900Y482600D01*
X393700Y571500D02*
X406400Y584200D01*
X393700Y571500D02*
X393700Y520700D01*
X419100Y565150D02*
X419100Y574675D01*
X412750Y584200D01*
X406400Y584200D01*
X419100Y565150D02*
X438150Y546100D01*
X511700Y546100D01*
D41*
X520700Y546100D03*
D42*
X511700Y546100D01*
D41*
X568325Y450850D03*
D42*
X723138Y332994D02*
X788162Y332994D01*
X723138Y332994D02*
X721106Y332994D01*
X698500Y355600D01*
X698500Y393700D01*
X685800Y406400D01*
X622300Y406400D01*
X577850Y450850D01*
X577325Y450850D01*
X568325Y450850D01*
X519700Y543272D02*
X511700Y546100D01*
X519700Y543272D02*
X520700Y546100D01*
X519700Y548928D02*
X511700Y546100D01*
X519700Y548928D02*
X520700Y546100D01*
X569325Y453678D02*
X577325Y450850D01*
X569325Y453678D02*
X568325Y450850D01*
X569325Y448022D02*
X577325Y450850D01*
X569325Y448022D02*
X568325Y450850D01*
X895350Y603250D02*
X895350Y615950D01*
X831850Y679450D01*
X819150Y679450D01*
X869950Y527050D02*
X850900Y508000D01*
X812800Y508000D02*
X781050Y539750D01*
X781050Y565150D01*
X730250Y615950D01*
X812800Y508000D02*
X850900Y508000D01*
X730250Y615950D02*
X730250Y653250D01*
X711200Y469900D02*
X698500Y469900D01*
X609600Y558800D01*
X609600Y584200D01*
X654050Y628650D01*
X654050Y641350D01*
X711200Y469900D02*
X749300Y469900D01*
X431800Y571500D02*
X431800Y609600D01*
X381000Y609600D02*
X381000Y520700D01*
X374650Y516890D01*
X222250Y516890D02*
X190500Y482600D01*
X222250Y516890D02*
X374650Y516890D01*
X381000Y609600D02*
X406400Y635000D01*
X431800Y609600D01*
X524400Y558800D02*
X533400Y558800D01*
X524400Y558800D02*
X444500Y558800D01*
X431800Y571500D01*
D41*
X571500Y469900D03*
X533400Y558800D03*
D42*
X602488Y332994D02*
X667512Y332994D01*
X602488Y332994D02*
X600456Y332994D01*
X527050Y412750D01*
X527050Y463550D01*
X533400Y469900D01*
X562500Y469900D01*
X571500Y469900D01*
X570500Y467072D02*
X562500Y469900D01*
X570500Y467072D02*
X571500Y469900D01*
X570500Y472728D02*
X562500Y469900D01*
X570500Y472728D02*
X571500Y469900D01*
X532400Y555972D02*
X524400Y558800D01*
X532400Y555972D02*
X533400Y558800D01*
X532400Y561628D02*
X524400Y558800D01*
X532400Y561628D02*
X533400Y558800D01*
X241300Y482600D02*
X241300Y444500D01*
X228600Y431800D01*
X215900Y431800D01*
X203200Y419100D01*
X203200Y330200D01*
X203200Y241300D01*
X190500Y228600D01*
X101600Y228600D01*
X76200Y254000D01*
X254000Y469900D02*
X266700Y482600D01*
X254000Y469900D02*
X254000Y190500D01*
X254000Y101600D01*
X241300Y88900D01*
X101600Y88900D01*
X76200Y114300D01*
D41*
X774700Y260350D03*
X825500Y311150D03*
X406400Y558800D03*
D42*
X412764Y552436D01*
X438150Y527050D01*
X495825Y527050D01*
D41*
X504825Y527050D03*
D42*
X495825Y527050D01*
D41*
X177800Y508000D03*
D42*
X184164Y514364D01*
X190500Y520700D01*
X190500Y546100D01*
X228600Y584200D01*
X254000Y584200D01*
D41*
X584200Y419100D03*
D42*
X577836Y425464D01*
D41*
X546100Y457200D03*
D42*
X552464Y450836D02*
X577836Y425464D01*
X552464Y450836D02*
X546100Y457200D01*
X774700Y254000D02*
X774700Y251350D01*
X774700Y254000D02*
X774700Y260350D01*
X834500Y311150D02*
X882396Y311150D01*
X834500Y311150D02*
X825500Y311150D01*
X777528Y259350D02*
X774700Y251350D01*
X777528Y259350D02*
X774700Y260350D01*
X771872Y259350D02*
X774700Y251350D01*
X771872Y259350D02*
X774700Y260350D01*
X826500Y313978D02*
X834500Y311150D01*
X826500Y313978D02*
X825500Y311150D01*
X826500Y308322D02*
X834500Y311150D01*
X826500Y308322D02*
X825500Y311150D01*
X412764Y552436D02*
X409107Y560093D01*
X406400Y558800D01*
X405107Y556093D02*
X412764Y552436D01*
X405107Y556093D02*
X406400Y558800D01*
X495825Y527050D02*
X503825Y524222D01*
X504825Y527050D01*
X503825Y529878D02*
X495825Y527050D01*
X503825Y529878D02*
X504825Y527050D01*
X184164Y514364D02*
X176507Y510707D01*
X177800Y508000D01*
X180507Y506707D02*
X184164Y514364D01*
X180507Y506707D02*
X177800Y508000D01*
X577836Y425464D02*
X581493Y417807D01*
X584200Y419100D01*
X585493Y421807D02*
X577836Y425464D01*
X585493Y421807D02*
X584200Y419100D01*
X552464Y450836D02*
X548807Y458493D01*
X546100Y457200D01*
X544807Y454493D02*
X552464Y450836D01*
X544807Y454493D02*
X546100Y457200D01*
X774700Y251350D02*
X774700Y241300D01*
D41*
X749300Y266700D03*
D42*
X749300Y257700D01*
X752128Y265700D01*
X749300Y266700D01*
X746472Y265700D02*
X749300Y257700D01*
X746472Y265700D02*
X749300Y266700D01*
X749300Y247650D01*
D41*
X723900Y266700D03*
D42*
X723900Y257700D01*
X726728Y265700D01*
X723900Y266700D01*
X721072Y265700D02*
X723900Y257700D01*
X721072Y265700D02*
X723900Y266700D01*
X723900Y241300D01*
D41*
X673100Y279400D03*
D42*
X673100Y270400D01*
X675928Y278400D01*
X673100Y279400D01*
X670272Y278400D02*
X673100Y270400D01*
X670272Y278400D02*
X673100Y279400D01*
X673100Y270400D02*
X673100Y247650D01*
D41*
X622300Y292100D03*
D42*
X622300Y283100D01*
X625128Y291100D01*
X622300Y292100D01*
X619472Y291100D02*
X622300Y283100D01*
X619472Y291100D02*
X622300Y292100D01*
X622300Y283100D02*
X622300Y241300D01*
D41*
X571500Y304800D03*
D42*
X571500Y295800D01*
X574328Y303800D01*
X571500Y304800D01*
X568672Y303800D02*
X571500Y295800D01*
X568672Y303800D02*
X571500Y304800D01*
X571500Y295800D02*
X571500Y241300D01*
X469900Y304800D02*
X469900Y406400D01*
X469900Y304800D02*
X444500Y279400D01*
X444500Y241300D01*
X323850Y717550D02*
X323850Y749300D01*
X323850Y717550D02*
X355600Y685800D01*
X190500Y441850D02*
X190500Y406400D01*
D41*
X190500Y450850D03*
D42*
X190500Y441850D01*
D41*
X203200Y514350D03*
D42*
X203200Y523350D01*
X203200Y539750D01*
X215886Y552436D01*
D41*
X222250Y558800D03*
D42*
X215886Y552436D01*
D41*
X247650Y717550D03*
D42*
X244475Y717550D01*
X239900Y712975D01*
X222250Y695325D01*
X222250Y688450D01*
D41*
X222250Y679450D03*
D42*
X222250Y688450D01*
X193328Y449850D02*
X190500Y441850D01*
X193328Y449850D02*
X190500Y450850D01*
X187672Y449850D02*
X190500Y441850D01*
X187672Y449850D02*
X190500Y450850D01*
X200372Y515350D02*
X203200Y523350D01*
X200372Y515350D02*
X203200Y514350D01*
X206028Y515350D02*
X203200Y523350D01*
X206028Y515350D02*
X203200Y514350D01*
X215886Y552436D02*
X223543Y556093D01*
X222250Y558800D01*
X219543Y560093D02*
X215886Y552436D01*
X219543Y560093D02*
X222250Y558800D01*
X239900Y712975D02*
X248227Y714606D01*
X247650Y717550D01*
X245351Y719477D02*
X239900Y712975D01*
X245351Y719477D02*
X247650Y717550D01*
X222250Y688450D02*
X219422Y680450D01*
X222250Y679450D01*
X225078Y680450D02*
X222250Y688450D01*
X225078Y680450D02*
X222250Y679450D01*
D41*
X285750Y730250D03*
D42*
X95250Y730250D02*
X88900Y736600D01*
X63500Y736600D01*
X276750Y730250D02*
X285750Y730250D01*
X276750Y730250D02*
X266700Y730250D01*
X260350Y736600D01*
X241300Y736600D01*
X234950Y730250D01*
X95250Y730250D01*
X419100Y495300D02*
X431800Y508000D01*
X419100Y495300D02*
X419100Y482600D01*
X431800Y508000D02*
X609600Y508000D01*
X284750Y727422D02*
X276750Y730250D01*
X284750Y727422D02*
X285750Y730250D01*
X284750Y733078D02*
X276750Y730250D01*
X284750Y733078D02*
X285750Y730250D01*
X431800Y368300D02*
X419100Y355600D01*
X431800Y368300D02*
X431800Y444500D01*
X444500Y457200D01*
X444500Y482600D01*
X419100Y355600D02*
X419100Y247650D01*
X469900Y482600D02*
X596900Y482600D01*
X609600Y469900D01*
D41*
X520700Y317500D03*
D42*
X520700Y308500D01*
X523528Y316500D01*
X520700Y317500D01*
X517872Y316500D02*
X520700Y308500D01*
X517872Y316500D02*
X520700Y317500D01*
X520700Y308500D02*
X520700Y241300D01*
X355600Y469900D02*
X368300Y482600D01*
X355600Y469900D02*
X355600Y457200D01*
X330200Y431800D01*
X330200Y381000D01*
X317500Y368300D01*
D41*
X203200Y741680D03*
D42*
X88900Y749300D02*
X50800Y749300D01*
X38100Y736600D01*
D41*
X304800Y609600D03*
D42*
X304800Y600600D01*
D41*
X304800Y555625D03*
D42*
X304800Y564625D02*
X304800Y600600D01*
X304800Y564625D02*
X304800Y555625D01*
X203200Y741680D02*
X194200Y741680D01*
X96520Y741680D01*
X88900Y749300D01*
X194200Y741680D02*
X202200Y738852D01*
X203200Y741680D01*
X202200Y744508D02*
X194200Y741680D01*
X202200Y744508D02*
X203200Y741680D01*
X307628Y608600D02*
X304800Y600600D01*
X307628Y608600D02*
X304800Y609600D01*
X301972Y608600D02*
X304800Y600600D01*
X301972Y608600D02*
X304800Y609600D01*
X304800Y564625D02*
X301972Y556625D01*
X304800Y555625D01*
X307628Y556625D02*
X304800Y564625D01*
X307628Y556625D02*
X304800Y555625D01*
X317500Y368300D02*
X317500Y241300D01*
X381000Y469900D02*
X393700Y482600D01*
X381000Y469900D02*
X381000Y381000D01*
D41*
X76200Y527050D03*
D42*
X85200Y527050D01*
D41*
X107950Y527050D03*
D42*
X98950Y527050D02*
X85200Y527050D01*
X98950Y527050D02*
X107950Y527050D01*
X381000Y381000D02*
X396875Y365125D01*
X396875Y301625D01*
X368300Y273050D01*
X85200Y527050D02*
X77200Y529878D01*
X76200Y527050D01*
X77200Y524222D02*
X85200Y527050D01*
X77200Y524222D02*
X76200Y527050D01*
X98950Y527050D02*
X106950Y524222D01*
X107950Y527050D01*
X106950Y529878D02*
X98950Y527050D01*
X106950Y529878D02*
X107950Y527050D01*
X368300Y273050D02*
X368300Y241300D01*
X965200Y581025D02*
X965200Y606100D01*
X965200Y581025D02*
X962039Y577864D01*
D41*
X955675Y571500D03*
D42*
X962039Y577864D01*
D41*
X927100Y571500D03*
D42*
X793750Y590550D02*
X793750Y679450D01*
X793750Y590550D02*
X812800Y571500D01*
X918100Y571500D01*
X927100Y571500D01*
X954382Y574207D02*
X962039Y577864D01*
X954382Y574207D02*
X955675Y571500D01*
X958382Y570207D02*
X962039Y577864D01*
X958382Y570207D02*
X955675Y571500D01*
X926100Y568672D02*
X918100Y571500D01*
X926100Y568672D02*
X927100Y571500D01*
X926100Y574328D02*
X918100Y571500D01*
X926100Y574328D02*
X927100Y571500D01*
X711200Y508000D02*
X685800Y508000D01*
X654050Y539750D01*
X654050Y571500D01*
X711200Y508000D02*
X749300Y508000D01*
X863600Y736600D02*
X901700Y736600D01*
X913000Y725300D02*
X913000Y702710D01*
X913000Y725300D02*
X901700Y736600D01*
X902100Y761600D02*
X889000Y774700D01*
X863600Y774700D01*
X902100Y761600D02*
X913000Y752710D01*
X939800Y546100D02*
X889000Y495300D01*
X787400Y495300D02*
X774700Y508000D01*
X787400Y495300D02*
X889000Y495300D01*
X939800Y546100D02*
X939800Y622300D01*
X952500Y635000D01*
X952500Y666750D01*
X939800Y679450D01*
X913800Y679450D01*
X913000Y677710D01*
X946150Y539750D02*
X876300Y469900D01*
X774700Y469900D01*
X946150Y539750D02*
X946150Y609600D01*
X965200Y698500D02*
X939800Y723900D01*
X936790Y777710D02*
X913000Y777710D01*
X936790Y777710D02*
X939800Y774700D01*
X939800Y723900D01*
X965200Y628650D02*
X946150Y609600D01*
X965200Y628650D02*
X965200Y698500D01*
X762000Y736600D02*
X762000Y774700D01*
X762000Y736600D02*
X762000Y710800D01*
X761600Y710800D01*
X704850Y654050D01*
X704850Y553650D01*
X705250Y553250D01*
X609600Y685800D02*
X590550Y704850D01*
X590550Y749300D01*
X482600Y736600D02*
X469900Y749300D01*
X482600Y736600D02*
X482600Y685800D01*
M02*
