M48
;GenerationSoftware,Autodesk,EAGLE,9.1.0*%
;CreationDate,2018-09-26T17:21:39Z*%
FMAT,2
ICI,OFF
METRIC,TZ,000.000
T10C0.600
T9C0.700
T8C0.813
T7C0.900
T6C1.016
T5C1.270
T4C1.300
T3C1.500
T2C3.175
%
G90
M71
T2
X2921Y64008
X91440Y64008
X95885Y5715
X2921Y5715
T3
X1905Y60325
X1905Y55880
T4
X91300Y77771
X96300Y72771
X91300Y67771
X91300Y70271
X91300Y75271
T5
X73025Y65325
X75525Y55325
X70525Y55325
T6
X16510Y76327
X24130Y76073
X21590Y76327
X32385Y74930
X34925Y74930
X56515Y74930
X59055Y74930
X44450Y74930
X46990Y74930
X13259Y70841
X13259Y66319
X19761Y70841
X72314Y37821
X13970Y76073
X19761Y66319
X11430Y76327
X19050Y76073
X66751Y33299
X66751Y37821
X60249Y33299
X60249Y37821
X78816Y33299
X78816Y37821
X72314Y33299
T7
X35560Y63500
X25400Y63500
X50800Y63500
X25400Y58420
X40640Y63500
X50800Y58420
X40640Y58420
X35560Y53340
X25400Y53340
X96520Y48610
X96520Y60610
X6350Y71120
X71120Y50800
X3810Y76200
X6350Y76200
X6350Y73660
X3810Y73660
X76200Y73660
X7620Y55880
X7620Y11430
X5080Y13970
X10160Y13970
X86360Y77470
X76200Y77470
X86360Y73660
X7620Y25400
X5080Y27940
X10160Y27940
X3810Y71120
X35560Y58420
X7620Y60325
X60960Y50800
X35560Y68580
X25400Y68580
X48260Y68580
X38100Y68580
X60960Y68580
X50800Y68580
X71120Y46990
X60960Y46990
T8
X86995Y52705
X39370Y40640
X36830Y40640
X34290Y40640
X31750Y40640
X29210Y40640
X26670Y40640
X24130Y40640
X21590Y40640
X81915Y52705
X84455Y52705
X35560Y34925
X89535Y52705
X89535Y60325
X86995Y60325
X84455Y60325
X81915Y60325
X19050Y40640
X16510Y40640
X13970Y40640
X38100Y34925
X44450Y40640
X33020Y34925
X13970Y48260
X16510Y48260
X19050Y48260
X21590Y48260
X24130Y48260
X26670Y48260
X29210Y48260
X34290Y48260
X41910Y40640
X46990Y40640
X46990Y48260
X44450Y48260
X41910Y48260
X39370Y48260
X36830Y48260
X31750Y48260
T9
X77470Y50800
X74930Y50800
X77470Y46990
X74930Y46990
X5080Y40640
X2540Y40640
X5080Y48260
X79375Y67945
X2540Y48260
X62865Y57150
X62865Y64135
X65405Y57150
X65405Y64135
X81915Y67945
X14605Y57785
X17145Y57785
T10
X82550Y31115
X95250Y31115
X77470Y26035
X10795Y52705
X95567Y57150
X92710Y57150
X95250Y40005
X53340Y55880
X57150Y46990
X56832Y45085
X52070Y54610
X12700Y54610
X85090Y40005
X85090Y26035
X64452Y42545
X10160Y45085
X11430Y62865
X19050Y45085
X7620Y52705
X30480Y55562
X30480Y60960
X20320Y74168
X52070Y31750
X28575Y73025
X22225Y67945
X24765Y71755
X22225Y55880
X20320Y51435
X40640Y55880
X57150Y30480
X62230Y29210
X67310Y27940
X72390Y26670
X74930Y26670
X54610Y45720
X58420Y41910
X17780Y50800
X50482Y52705
M30