G04 EAGLE Gerber X2 export*
%TF.Part,Single*%
%TF.FileFunction,Profile,NP*%
%TF.FilePolarity,Positive*%
%TF.GenerationSoftware,Autodesk,EAGLE,9.1.0*%
%TF.CreationDate,2018-09-26T17:21:40Z*%
G75*
%MOMM*%
%FSLAX34Y34*%
%LPD*%
%AMOC8*
5,1,8,0,0,1.08239X$1,22.5*%
G01*
%ADD10C,0.254000*%


D10*
X0Y0D02*
X990600Y0D01*
X990600Y800100D01*
X0Y800100D01*
X0Y0D01*
X45085Y56630D02*
X45017Y55593D01*
X44881Y54563D01*
X44679Y53543D01*
X44410Y52539D01*
X44075Y51555D01*
X43678Y50595D01*
X43218Y49663D01*
X42698Y48762D01*
X42121Y47898D01*
X41488Y47074D01*
X40803Y46292D01*
X40068Y45557D01*
X39286Y44872D01*
X38462Y44239D01*
X37598Y43662D01*
X36697Y43142D01*
X35765Y42682D01*
X34805Y42285D01*
X33821Y41950D01*
X32817Y41681D01*
X31797Y41479D01*
X30767Y41343D01*
X29730Y41275D01*
X28690Y41275D01*
X27653Y41343D01*
X26623Y41479D01*
X25603Y41681D01*
X24599Y41950D01*
X23615Y42285D01*
X22655Y42682D01*
X21723Y43142D01*
X20822Y43662D01*
X19958Y44239D01*
X19134Y44872D01*
X18352Y45557D01*
X17617Y46292D01*
X16932Y47074D01*
X16299Y47898D01*
X15722Y48762D01*
X15202Y49663D01*
X14742Y50595D01*
X14345Y51555D01*
X14010Y52539D01*
X13741Y53543D01*
X13539Y54563D01*
X13403Y55593D01*
X13335Y56630D01*
X13335Y57670D01*
X13403Y58707D01*
X13539Y59737D01*
X13741Y60757D01*
X14010Y61761D01*
X14345Y62745D01*
X14742Y63705D01*
X15202Y64637D01*
X15722Y65538D01*
X16299Y66402D01*
X16932Y67226D01*
X17617Y68008D01*
X18352Y68743D01*
X19134Y69428D01*
X19958Y70061D01*
X20822Y70638D01*
X21723Y71158D01*
X22655Y71618D01*
X23615Y72015D01*
X24599Y72350D01*
X25603Y72619D01*
X26623Y72821D01*
X27653Y72957D01*
X28690Y73025D01*
X29730Y73025D01*
X30767Y72957D01*
X31797Y72821D01*
X32817Y72619D01*
X33821Y72350D01*
X34805Y72015D01*
X35765Y71618D01*
X36697Y71158D01*
X37598Y70638D01*
X38462Y70061D01*
X39286Y69428D01*
X40068Y68743D01*
X40803Y68008D01*
X41488Y67226D01*
X42121Y66402D01*
X42698Y65538D01*
X43218Y64637D01*
X43678Y63705D01*
X44075Y62745D01*
X44410Y61761D01*
X44679Y60757D01*
X44881Y59737D01*
X45017Y58707D01*
X45085Y57670D01*
X45085Y56630D01*
X974725Y56630D02*
X974657Y55593D01*
X974521Y54563D01*
X974319Y53543D01*
X974050Y52539D01*
X973715Y51555D01*
X973318Y50595D01*
X972858Y49663D01*
X972338Y48762D01*
X971761Y47898D01*
X971128Y47074D01*
X970443Y46292D01*
X969708Y45557D01*
X968926Y44872D01*
X968102Y44239D01*
X967238Y43662D01*
X966337Y43142D01*
X965405Y42682D01*
X964445Y42285D01*
X963461Y41950D01*
X962457Y41681D01*
X961437Y41479D01*
X960407Y41343D01*
X959370Y41275D01*
X958330Y41275D01*
X957293Y41343D01*
X956263Y41479D01*
X955243Y41681D01*
X954239Y41950D01*
X953255Y42285D01*
X952295Y42682D01*
X951363Y43142D01*
X950462Y43662D01*
X949598Y44239D01*
X948774Y44872D01*
X947992Y45557D01*
X947257Y46292D01*
X946572Y47074D01*
X945939Y47898D01*
X945362Y48762D01*
X944842Y49663D01*
X944382Y50595D01*
X943985Y51555D01*
X943650Y52539D01*
X943381Y53543D01*
X943179Y54563D01*
X943043Y55593D01*
X942975Y56630D01*
X942975Y57670D01*
X943043Y58707D01*
X943179Y59737D01*
X943381Y60757D01*
X943650Y61761D01*
X943985Y62745D01*
X944382Y63705D01*
X944842Y64637D01*
X945362Y65538D01*
X945939Y66402D01*
X946572Y67226D01*
X947257Y68008D01*
X947992Y68743D01*
X948774Y69428D01*
X949598Y70061D01*
X950462Y70638D01*
X951363Y71158D01*
X952295Y71618D01*
X953255Y72015D01*
X954239Y72350D01*
X955243Y72619D01*
X956263Y72821D01*
X957293Y72957D01*
X958330Y73025D01*
X959370Y73025D01*
X960407Y72957D01*
X961437Y72821D01*
X962457Y72619D01*
X963461Y72350D01*
X964445Y72015D01*
X965405Y71618D01*
X966337Y71158D01*
X967238Y70638D01*
X968102Y70061D01*
X968926Y69428D01*
X969708Y68743D01*
X970443Y68008D01*
X971128Y67226D01*
X971761Y66402D01*
X972338Y65538D01*
X972858Y64637D01*
X973318Y63705D01*
X973715Y62745D01*
X974050Y61761D01*
X974319Y60757D01*
X974521Y59737D01*
X974657Y58707D01*
X974725Y57670D01*
X974725Y56630D01*
X930275Y639560D02*
X930207Y638523D01*
X930071Y637493D01*
X929869Y636473D01*
X929600Y635469D01*
X929265Y634485D01*
X928868Y633525D01*
X928408Y632593D01*
X927888Y631692D01*
X927311Y630828D01*
X926678Y630004D01*
X925993Y629222D01*
X925258Y628487D01*
X924476Y627802D01*
X923652Y627169D01*
X922788Y626592D01*
X921887Y626072D01*
X920955Y625612D01*
X919995Y625215D01*
X919011Y624880D01*
X918007Y624611D01*
X916987Y624409D01*
X915957Y624273D01*
X914920Y624205D01*
X913880Y624205D01*
X912843Y624273D01*
X911813Y624409D01*
X910793Y624611D01*
X909789Y624880D01*
X908805Y625215D01*
X907845Y625612D01*
X906913Y626072D01*
X906012Y626592D01*
X905148Y627169D01*
X904324Y627802D01*
X903542Y628487D01*
X902807Y629222D01*
X902122Y630004D01*
X901489Y630828D01*
X900912Y631692D01*
X900392Y632593D01*
X899932Y633525D01*
X899535Y634485D01*
X899200Y635469D01*
X898931Y636473D01*
X898729Y637493D01*
X898593Y638523D01*
X898525Y639560D01*
X898525Y640600D01*
X898593Y641637D01*
X898729Y642667D01*
X898931Y643687D01*
X899200Y644691D01*
X899535Y645675D01*
X899932Y646635D01*
X900392Y647567D01*
X900912Y648468D01*
X901489Y649332D01*
X902122Y650156D01*
X902807Y650938D01*
X903542Y651673D01*
X904324Y652358D01*
X905148Y652991D01*
X906012Y653568D01*
X906913Y654088D01*
X907845Y654548D01*
X908805Y654945D01*
X909789Y655280D01*
X910793Y655549D01*
X911813Y655751D01*
X912843Y655887D01*
X913880Y655955D01*
X914920Y655955D01*
X915957Y655887D01*
X916987Y655751D01*
X918007Y655549D01*
X919011Y655280D01*
X919995Y654945D01*
X920955Y654548D01*
X921887Y654088D01*
X922788Y653568D01*
X923652Y652991D01*
X924476Y652358D01*
X925258Y651673D01*
X925993Y650938D01*
X926678Y650156D01*
X927311Y649332D01*
X927888Y648468D01*
X928408Y647567D01*
X928868Y646635D01*
X929265Y645675D01*
X929600Y644691D01*
X929869Y643687D01*
X930071Y642667D01*
X930207Y641637D01*
X930275Y640600D01*
X930275Y639560D01*
X45085Y639560D02*
X45017Y638523D01*
X44881Y637493D01*
X44679Y636473D01*
X44410Y635469D01*
X44075Y634485D01*
X43678Y633525D01*
X43218Y632593D01*
X42698Y631692D01*
X42121Y630828D01*
X41488Y630004D01*
X40803Y629222D01*
X40068Y628487D01*
X39286Y627802D01*
X38462Y627169D01*
X37598Y626592D01*
X36697Y626072D01*
X35765Y625612D01*
X34805Y625215D01*
X33821Y624880D01*
X32817Y624611D01*
X31797Y624409D01*
X30767Y624273D01*
X29730Y624205D01*
X28690Y624205D01*
X27653Y624273D01*
X26623Y624409D01*
X25603Y624611D01*
X24599Y624880D01*
X23615Y625215D01*
X22655Y625612D01*
X21723Y626072D01*
X20822Y626592D01*
X19958Y627169D01*
X19134Y627802D01*
X18352Y628487D01*
X17617Y629222D01*
X16932Y630004D01*
X16299Y630828D01*
X15722Y631692D01*
X15202Y632593D01*
X14742Y633525D01*
X14345Y634485D01*
X14010Y635469D01*
X13741Y636473D01*
X13539Y637493D01*
X13403Y638523D01*
X13335Y639560D01*
X13335Y640600D01*
X13403Y641637D01*
X13539Y642667D01*
X13741Y643687D01*
X14010Y644691D01*
X14345Y645675D01*
X14742Y646635D01*
X15202Y647567D01*
X15722Y648468D01*
X16299Y649332D01*
X16932Y650156D01*
X17617Y650938D01*
X18352Y651673D01*
X19134Y652358D01*
X19958Y652991D01*
X20822Y653568D01*
X21723Y654088D01*
X22655Y654548D01*
X23615Y654945D01*
X24599Y655280D01*
X25603Y655549D01*
X26623Y655751D01*
X27653Y655887D01*
X28690Y655955D01*
X29730Y655955D01*
X30767Y655887D01*
X31797Y655751D01*
X32817Y655549D01*
X33821Y655280D01*
X34805Y654945D01*
X35765Y654548D01*
X36697Y654088D01*
X37598Y653568D01*
X38462Y652991D01*
X39286Y652358D01*
X40068Y651673D01*
X40803Y650938D01*
X41488Y650156D01*
X42121Y649332D01*
X42698Y648468D01*
X43218Y647567D01*
X43678Y646635D01*
X44075Y645675D01*
X44410Y644691D01*
X44679Y643687D01*
X44881Y642667D01*
X45017Y641637D01*
X45085Y640600D01*
X45085Y639560D01*
X26550Y558432D02*
X26478Y557698D01*
X26334Y556975D01*
X26120Y556270D01*
X25838Y555589D01*
X25491Y554940D01*
X25081Y554327D01*
X24614Y553757D01*
X24093Y553236D01*
X23523Y552769D01*
X22910Y552359D01*
X22261Y552012D01*
X21580Y551730D01*
X20875Y551516D01*
X20152Y551372D01*
X19418Y551300D01*
X18682Y551300D01*
X17948Y551372D01*
X17225Y551516D01*
X16520Y551730D01*
X15839Y552012D01*
X15190Y552359D01*
X14577Y552769D01*
X14007Y553236D01*
X13486Y553757D01*
X13019Y554327D01*
X12609Y554940D01*
X12262Y555589D01*
X11980Y556270D01*
X11766Y556975D01*
X11622Y557698D01*
X11550Y558432D01*
X11550Y559168D01*
X11622Y559902D01*
X11766Y560625D01*
X11980Y561330D01*
X12262Y562011D01*
X12609Y562660D01*
X13019Y563273D01*
X13486Y563843D01*
X14007Y564364D01*
X14577Y564831D01*
X15190Y565241D01*
X15839Y565588D01*
X16520Y565870D01*
X17225Y566084D01*
X17948Y566228D01*
X18682Y566300D01*
X19418Y566300D01*
X20152Y566228D01*
X20875Y566084D01*
X21580Y565870D01*
X22261Y565588D01*
X22910Y565241D01*
X23523Y564831D01*
X24093Y564364D01*
X24614Y563843D01*
X25081Y563273D01*
X25491Y562660D01*
X25838Y562011D01*
X26120Y561330D01*
X26334Y560625D01*
X26478Y559902D01*
X26550Y559168D01*
X26550Y558432D01*
X26550Y602882D02*
X26478Y602148D01*
X26334Y601425D01*
X26120Y600720D01*
X25838Y600039D01*
X25491Y599390D01*
X25081Y598777D01*
X24614Y598207D01*
X24093Y597686D01*
X23523Y597219D01*
X22910Y596809D01*
X22261Y596462D01*
X21580Y596180D01*
X20875Y595966D01*
X20152Y595822D01*
X19418Y595750D01*
X18682Y595750D01*
X17948Y595822D01*
X17225Y595966D01*
X16520Y596180D01*
X15839Y596462D01*
X15190Y596809D01*
X14577Y597219D01*
X14007Y597686D01*
X13486Y598207D01*
X13019Y598777D01*
X12609Y599390D01*
X12262Y600039D01*
X11980Y600720D01*
X11766Y601425D01*
X11622Y602148D01*
X11550Y602882D01*
X11550Y603618D01*
X11622Y604352D01*
X11766Y605075D01*
X11980Y605780D01*
X12262Y606461D01*
X12609Y607110D01*
X13019Y607723D01*
X13486Y608293D01*
X14007Y608814D01*
X14577Y609281D01*
X15190Y609691D01*
X15839Y610038D01*
X16520Y610320D01*
X17225Y610534D01*
X17948Y610678D01*
X18682Y610750D01*
X19418Y610750D01*
X20152Y610678D01*
X20875Y610534D01*
X21580Y610320D01*
X22261Y610038D01*
X22910Y609691D01*
X23523Y609281D01*
X24093Y608814D01*
X24614Y608293D01*
X25081Y607723D01*
X25491Y607110D01*
X25838Y606461D01*
X26120Y605780D01*
X26334Y605075D01*
X26478Y604352D01*
X26550Y603618D01*
X26550Y602882D01*
M02*
