G04 EAGLE Gerber X2 export*
%TF.Part,Single*%
%TF.FileFunction,Soldermask,Top,1*%
%TF.FilePolarity,Negative*%
%TF.GenerationSoftware,Autodesk,EAGLE,9.1.0*%
%TF.CreationDate,2018-09-26T17:21:40Z*%
G75*
%MOMM*%
%FSLAX34Y34*%
%LPD*%
%AMOC8*
5,1,8,0,0,1.08239X$1,22.5*%
G01*
%ADD10C,3.378200*%
%ADD11C,1.524000*%
%ADD12C,1.879600*%
%ADD13P,2.144431X8X112.500000*%
%ADD14C,1.828800*%
%ADD15C,2.082800*%
%ADD16R,1.854200X1.854200*%
%ADD17C,1.854200*%
%ADD18C,1.981200*%
%ADD19C,1.727200*%
%ADD20C,2.463800*%
%ADD21C,1.841500*%
%ADD22C,1.703200*%
%ADD23R,1.092200X0.584200*%
%ADD24C,0.889000*%
%ADD25C,0.406400*%
%ADD26C,2.235200*%
%ADD27R,0.584200X1.219200*%
%ADD28R,0.584200X1.092200*%
%ADD29R,6.985000X9.220200*%
%ADD30R,3.136900X10.363200*%
%ADD31R,6.705600X8.178800*%
%ADD32R,6.629400X8.204200*%
%ADD33R,6.692900X8.178800*%
%ADD34R,6.654800X8.178800*%
%ADD35R,3.149600X10.363200*%
%ADD36R,7.035800X9.220200*%
%ADD37R,6.959600X9.220200*%
%ADD38R,3.175000X10.363200*%
%ADD39C,0.431800*%
%ADD40C,0.381000*%

G36*
X644186Y142121D02*
X644186Y142121D01*
X644228Y142119D01*
X644295Y142141D01*
X644365Y142153D01*
X644401Y142175D01*
X644442Y142188D01*
X644515Y142242D01*
X644558Y142268D01*
X644571Y142284D01*
X644592Y142300D01*
X655260Y152968D01*
X655311Y153041D01*
X655367Y153110D01*
X655375Y153132D01*
X655389Y153152D01*
X655411Y153238D01*
X655439Y153322D01*
X655439Y153346D01*
X655445Y153369D01*
X655435Y153458D01*
X655433Y153547D01*
X655424Y153569D01*
X655421Y153592D01*
X655382Y153672D01*
X655348Y153754D01*
X655332Y153772D01*
X655322Y153793D01*
X655257Y153854D01*
X655197Y153920D01*
X655176Y153931D01*
X655159Y153947D01*
X655077Y153982D01*
X654997Y154023D01*
X654971Y154026D01*
X654952Y154035D01*
X654902Y154037D01*
X654812Y154050D01*
X588899Y154050D01*
X588834Y154039D01*
X588768Y154037D01*
X588725Y154019D01*
X588678Y154011D01*
X588621Y153977D01*
X588561Y153952D01*
X588526Y153921D01*
X588485Y153896D01*
X588444Y153845D01*
X588395Y153801D01*
X588373Y153759D01*
X588344Y153722D01*
X588323Y153660D01*
X588292Y153601D01*
X588284Y153547D01*
X588272Y153510D01*
X588273Y153470D01*
X588265Y153416D01*
X588265Y153162D01*
X588273Y153118D01*
X588271Y153074D01*
X588292Y153009D01*
X588304Y152941D01*
X588327Y152903D01*
X588341Y152861D01*
X588393Y152791D01*
X588419Y152748D01*
X588436Y152734D01*
X588453Y152711D01*
X598994Y142297D01*
X599028Y142274D01*
X599055Y142244D01*
X599120Y142211D01*
X599179Y142170D01*
X599219Y142160D01*
X599255Y142141D01*
X599348Y142128D01*
X599397Y142115D01*
X599416Y142117D01*
X599440Y142114D01*
X644144Y142114D01*
X644186Y142121D01*
G37*
G36*
X404029Y142121D02*
X404029Y142121D01*
X404071Y142119D01*
X404138Y142141D01*
X404208Y142153D01*
X404244Y142175D01*
X404285Y142188D01*
X404358Y142242D01*
X404401Y142268D01*
X404414Y142284D01*
X404435Y142300D01*
X414849Y152714D01*
X414893Y152776D01*
X414944Y152834D01*
X414957Y152868D01*
X414978Y152898D01*
X414997Y152972D01*
X415024Y153043D01*
X415024Y153080D01*
X415034Y153115D01*
X415026Y153191D01*
X415026Y153267D01*
X415014Y153307D01*
X415010Y153338D01*
X414990Y153379D01*
X414968Y153446D01*
X414841Y153700D01*
X414822Y153726D01*
X414810Y153756D01*
X414755Y153815D01*
X414707Y153879D01*
X414680Y153897D01*
X414658Y153921D01*
X414586Y153957D01*
X414519Y154001D01*
X414487Y154008D01*
X414458Y154023D01*
X414346Y154039D01*
X414300Y154050D01*
X414288Y154048D01*
X414273Y154050D01*
X348360Y153923D01*
X348273Y153907D01*
X348185Y153898D01*
X348163Y153887D01*
X348139Y153883D01*
X348063Y153838D01*
X347984Y153799D01*
X347967Y153781D01*
X347946Y153769D01*
X347890Y153700D01*
X347830Y153636D01*
X347820Y153613D01*
X347805Y153594D01*
X347777Y153510D01*
X347742Y153429D01*
X347741Y153405D01*
X347734Y153382D01*
X347736Y153293D01*
X347732Y153205D01*
X347740Y153182D01*
X347741Y153157D01*
X347774Y153076D01*
X347801Y152991D01*
X347817Y152969D01*
X347825Y152950D01*
X347859Y152912D01*
X347913Y152841D01*
X358454Y142300D01*
X358488Y142275D01*
X358517Y142244D01*
X358580Y142212D01*
X358638Y142171D01*
X358679Y142161D01*
X358717Y142141D01*
X358806Y142128D01*
X358855Y142116D01*
X358876Y142118D01*
X358902Y142114D01*
X403987Y142114D01*
X404029Y142121D01*
G37*
G36*
X804460Y142121D02*
X804460Y142121D01*
X804502Y142119D01*
X804569Y142141D01*
X804639Y142153D01*
X804675Y142175D01*
X804716Y142188D01*
X804789Y142242D01*
X804832Y142268D01*
X804845Y142284D01*
X804866Y142300D01*
X815534Y152968D01*
X815585Y153041D01*
X815641Y153110D01*
X815649Y153132D01*
X815663Y153152D01*
X815685Y153238D01*
X815713Y153322D01*
X815713Y153346D01*
X815719Y153369D01*
X815709Y153458D01*
X815707Y153547D01*
X815698Y153569D01*
X815695Y153592D01*
X815656Y153672D01*
X815622Y153754D01*
X815606Y153772D01*
X815596Y153793D01*
X815531Y153854D01*
X815471Y153920D01*
X815450Y153931D01*
X815433Y153947D01*
X815351Y153982D01*
X815271Y154023D01*
X815245Y154026D01*
X815226Y154035D01*
X815176Y154037D01*
X815086Y154050D01*
X749173Y154050D01*
X749084Y154034D01*
X748993Y154024D01*
X748974Y154014D01*
X748952Y154011D01*
X748874Y153964D01*
X748793Y153924D01*
X748778Y153908D01*
X748759Y153896D01*
X748702Y153826D01*
X748640Y153759D01*
X748631Y153739D01*
X748618Y153722D01*
X748588Y153636D01*
X748554Y153552D01*
X748553Y153530D01*
X748546Y153510D01*
X748548Y153419D01*
X748545Y153328D01*
X748552Y153307D01*
X748552Y153285D01*
X748586Y153201D01*
X748615Y153115D01*
X748629Y153095D01*
X748637Y153078D01*
X748671Y153040D01*
X748727Y152965D01*
X759522Y142297D01*
X759556Y142274D01*
X759583Y142244D01*
X759648Y142211D01*
X759707Y142170D01*
X759747Y142160D01*
X759783Y142141D01*
X759876Y142128D01*
X759925Y142115D01*
X759944Y142117D01*
X759968Y142114D01*
X804418Y142114D01*
X804460Y142121D01*
G37*
G36*
X723942Y142121D02*
X723942Y142121D01*
X723984Y142119D01*
X724051Y142141D01*
X724121Y142153D01*
X724157Y142175D01*
X724198Y142188D01*
X724271Y142242D01*
X724314Y142268D01*
X724327Y142284D01*
X724348Y142300D01*
X735016Y152968D01*
X735067Y153041D01*
X735123Y153110D01*
X735131Y153132D01*
X735145Y153152D01*
X735167Y153238D01*
X735195Y153322D01*
X735195Y153346D01*
X735201Y153369D01*
X735191Y153458D01*
X735189Y153547D01*
X735180Y153569D01*
X735177Y153592D01*
X735138Y153672D01*
X735104Y153754D01*
X735088Y153772D01*
X735078Y153793D01*
X735013Y153854D01*
X734953Y153920D01*
X734932Y153931D01*
X734915Y153947D01*
X734833Y153982D01*
X734753Y154023D01*
X734727Y154026D01*
X734708Y154035D01*
X734658Y154037D01*
X734568Y154050D01*
X669036Y154050D01*
X668948Y154034D01*
X668860Y154025D01*
X668839Y154015D01*
X668815Y154011D01*
X668738Y153965D01*
X668659Y153926D01*
X668642Y153909D01*
X668622Y153896D01*
X668566Y153827D01*
X668505Y153763D01*
X668496Y153741D01*
X668481Y153722D01*
X668452Y153638D01*
X668417Y153556D01*
X668416Y153532D01*
X668409Y153510D01*
X668411Y153421D01*
X668407Y153332D01*
X668415Y153309D01*
X668415Y153285D01*
X668449Y153203D01*
X668476Y153118D01*
X668492Y153097D01*
X668500Y153078D01*
X668534Y153040D01*
X668588Y152968D01*
X679256Y142300D01*
X679290Y142275D01*
X679319Y142244D01*
X679382Y142212D01*
X679440Y142171D01*
X679481Y142161D01*
X679519Y142141D01*
X679608Y142128D01*
X679657Y142116D01*
X679678Y142118D01*
X679704Y142114D01*
X723900Y142114D01*
X723942Y142121D01*
G37*
G36*
X484545Y142629D02*
X484545Y142629D01*
X484585Y142627D01*
X484654Y142649D01*
X484726Y142661D01*
X484761Y142682D01*
X484799Y142694D01*
X484876Y142750D01*
X484919Y142776D01*
X484931Y142790D01*
X484951Y142805D01*
X494984Y152711D01*
X495023Y152766D01*
X495069Y152815D01*
X495087Y152857D01*
X495113Y152894D01*
X495130Y152960D01*
X495157Y153022D01*
X495159Y153067D01*
X495170Y153111D01*
X495164Y153178D01*
X495167Y153246D01*
X495153Y153289D01*
X495148Y153334D01*
X495119Y153395D01*
X495098Y153460D01*
X495067Y153502D01*
X495050Y153536D01*
X495021Y153564D01*
X494986Y153610D01*
X494732Y153864D01*
X494701Y153887D01*
X494681Y153908D01*
X494679Y153909D01*
X494669Y153920D01*
X494606Y153952D01*
X494548Y153993D01*
X494507Y154003D01*
X494469Y154023D01*
X494380Y154036D01*
X494331Y154049D01*
X494310Y154046D01*
X494284Y154050D01*
X429260Y154050D01*
X429229Y154045D01*
X429197Y154047D01*
X429119Y154025D01*
X429039Y154011D01*
X429012Y153994D01*
X428981Y153986D01*
X428916Y153938D01*
X428846Y153896D01*
X428826Y153872D01*
X428800Y153853D01*
X428734Y153759D01*
X428705Y153722D01*
X428702Y153714D01*
X428699Y153710D01*
X428697Y153706D01*
X428693Y153700D01*
X428566Y153446D01*
X428544Y153372D01*
X428514Y153302D01*
X428513Y153265D01*
X428502Y153230D01*
X428508Y153154D01*
X428504Y153078D01*
X428516Y153043D01*
X428518Y153007D01*
X428550Y152937D01*
X428573Y152864D01*
X428598Y152831D01*
X428611Y152802D01*
X428643Y152769D01*
X428685Y152714D01*
X438591Y142808D01*
X438625Y142783D01*
X438654Y142752D01*
X438717Y142720D01*
X438775Y142679D01*
X438816Y142669D01*
X438854Y142649D01*
X438943Y142636D01*
X438992Y142624D01*
X439013Y142626D01*
X439039Y142622D01*
X484505Y142622D01*
X484545Y142629D01*
G37*
G36*
X436968Y130446D02*
X436968Y130446D01*
X437056Y130455D01*
X437077Y130465D01*
X437101Y130469D01*
X437178Y130515D01*
X437257Y130554D01*
X437274Y130571D01*
X437294Y130584D01*
X437350Y130653D01*
X437411Y130717D01*
X437420Y130739D01*
X437435Y130758D01*
X437464Y130842D01*
X437499Y130924D01*
X437500Y130948D01*
X437507Y130970D01*
X437505Y131059D01*
X437509Y131148D01*
X437501Y131171D01*
X437501Y131195D01*
X437467Y131277D01*
X437440Y131362D01*
X437424Y131383D01*
X437416Y131402D01*
X437382Y131440D01*
X437328Y131512D01*
X424120Y144720D01*
X424086Y144745D01*
X424057Y144776D01*
X423994Y144808D01*
X423936Y144849D01*
X423895Y144859D01*
X423857Y144879D01*
X423768Y144892D01*
X423719Y144905D01*
X423698Y144902D01*
X423672Y144906D01*
X419608Y144906D01*
X419566Y144899D01*
X419524Y144901D01*
X419457Y144879D01*
X419387Y144867D01*
X419351Y144845D01*
X419310Y144832D01*
X419237Y144778D01*
X419194Y144752D01*
X419181Y144736D01*
X419160Y144720D01*
X406206Y131766D01*
X406181Y131732D01*
X406150Y131703D01*
X406118Y131640D01*
X406077Y131582D01*
X406067Y131541D01*
X406047Y131503D01*
X406034Y131414D01*
X406022Y131365D01*
X406024Y131344D01*
X406020Y131318D01*
X406020Y131064D01*
X406031Y130999D01*
X406033Y130933D01*
X406051Y130890D01*
X406059Y130843D01*
X406093Y130786D01*
X406118Y130726D01*
X406149Y130691D01*
X406174Y130650D01*
X406225Y130609D01*
X406269Y130560D01*
X406311Y130538D01*
X406348Y130509D01*
X406410Y130488D01*
X406469Y130457D01*
X406523Y130449D01*
X406560Y130437D01*
X406600Y130438D01*
X406654Y130430D01*
X436880Y130430D01*
X436968Y130446D01*
G37*
G36*
X677252Y130446D02*
X677252Y130446D01*
X677340Y130455D01*
X677361Y130465D01*
X677385Y130469D01*
X677462Y130515D01*
X677541Y130554D01*
X677558Y130571D01*
X677578Y130584D01*
X677634Y130653D01*
X677695Y130717D01*
X677704Y130739D01*
X677719Y130758D01*
X677748Y130842D01*
X677783Y130924D01*
X677784Y130948D01*
X677791Y130970D01*
X677789Y131059D01*
X677793Y131148D01*
X677785Y131171D01*
X677785Y131195D01*
X677751Y131277D01*
X677724Y131362D01*
X677708Y131383D01*
X677700Y131402D01*
X677666Y131440D01*
X677612Y131512D01*
X664658Y144466D01*
X664624Y144491D01*
X664595Y144522D01*
X664532Y144554D01*
X664474Y144595D01*
X664433Y144605D01*
X664395Y144625D01*
X664306Y144638D01*
X664257Y144651D01*
X664236Y144648D01*
X664210Y144652D01*
X659638Y144652D01*
X659596Y144645D01*
X659554Y144647D01*
X659487Y144625D01*
X659417Y144613D01*
X659381Y144591D01*
X659340Y144578D01*
X659267Y144524D01*
X659224Y144498D01*
X659211Y144482D01*
X659190Y144466D01*
X646236Y131512D01*
X646185Y131439D01*
X646129Y131370D01*
X646121Y131348D01*
X646107Y131328D01*
X646085Y131242D01*
X646057Y131158D01*
X646057Y131134D01*
X646052Y131111D01*
X646061Y131022D01*
X646063Y130933D01*
X646072Y130911D01*
X646075Y130888D01*
X646114Y130808D01*
X646148Y130726D01*
X646164Y130708D01*
X646174Y130687D01*
X646239Y130626D01*
X646299Y130560D01*
X646320Y130549D01*
X646337Y130533D01*
X646419Y130498D01*
X646499Y130457D01*
X646525Y130454D01*
X646544Y130445D01*
X646594Y130443D01*
X646684Y130430D01*
X677164Y130430D01*
X677252Y130446D01*
G37*
G36*
X757008Y130446D02*
X757008Y130446D01*
X757096Y130455D01*
X757117Y130465D01*
X757141Y130469D01*
X757218Y130515D01*
X757297Y130554D01*
X757314Y130571D01*
X757334Y130584D01*
X757390Y130653D01*
X757451Y130717D01*
X757460Y130739D01*
X757475Y130758D01*
X757504Y130842D01*
X757539Y130924D01*
X757540Y130948D01*
X757547Y130970D01*
X757545Y131059D01*
X757549Y131148D01*
X757541Y131171D01*
X757541Y131195D01*
X757507Y131277D01*
X757480Y131362D01*
X757464Y131383D01*
X757456Y131402D01*
X757422Y131440D01*
X757368Y131512D01*
X744668Y144212D01*
X744637Y144234D01*
X744620Y144253D01*
X744618Y144254D01*
X744605Y144268D01*
X744542Y144300D01*
X744484Y144341D01*
X744443Y144351D01*
X744405Y144371D01*
X744316Y144384D01*
X744267Y144397D01*
X744246Y144394D01*
X744220Y144398D01*
X739648Y144398D01*
X739606Y144391D01*
X739564Y144393D01*
X739497Y144371D01*
X739427Y144359D01*
X739391Y144337D01*
X739350Y144324D01*
X739277Y144270D01*
X739234Y144244D01*
X739224Y144233D01*
X739219Y144229D01*
X739214Y144223D01*
X739200Y144212D01*
X726500Y131512D01*
X726449Y131439D01*
X726393Y131370D01*
X726385Y131348D01*
X726371Y131328D01*
X726349Y131242D01*
X726321Y131158D01*
X726321Y131134D01*
X726316Y131111D01*
X726325Y131022D01*
X726327Y130933D01*
X726336Y130911D01*
X726339Y130888D01*
X726378Y130808D01*
X726412Y130726D01*
X726428Y130708D01*
X726438Y130687D01*
X726503Y130626D01*
X726563Y130560D01*
X726584Y130549D01*
X726601Y130533D01*
X726683Y130498D01*
X726763Y130457D01*
X726789Y130454D01*
X726808Y130445D01*
X726858Y130443D01*
X726948Y130430D01*
X756920Y130430D01*
X757008Y130446D01*
G37*
G36*
X356704Y130700D02*
X356704Y130700D01*
X356792Y130709D01*
X356813Y130719D01*
X356837Y130723D01*
X356914Y130769D01*
X356993Y130808D01*
X357010Y130825D01*
X357030Y130838D01*
X357086Y130907D01*
X357147Y130971D01*
X357156Y130993D01*
X357171Y131012D01*
X357200Y131096D01*
X357235Y131178D01*
X357236Y131202D01*
X357243Y131224D01*
X357241Y131313D01*
X357245Y131402D01*
X357237Y131425D01*
X357237Y131449D01*
X357203Y131531D01*
X357176Y131616D01*
X357160Y131637D01*
X357152Y131656D01*
X357118Y131694D01*
X357064Y131766D01*
X336998Y151832D01*
X336925Y151883D01*
X336856Y151939D01*
X336834Y151947D01*
X336814Y151961D01*
X336728Y151983D01*
X336644Y152011D01*
X336620Y152011D01*
X336597Y152017D01*
X336508Y152007D01*
X336419Y152005D01*
X336397Y151996D01*
X336374Y151993D01*
X336294Y151954D01*
X336212Y151920D01*
X336194Y151904D01*
X336173Y151894D01*
X336112Y151829D01*
X336046Y151769D01*
X336035Y151748D01*
X336019Y151731D01*
X335984Y151649D01*
X335943Y151569D01*
X335940Y151543D01*
X335931Y151524D01*
X335929Y151474D01*
X335916Y151384D01*
X335916Y131318D01*
X335927Y131253D01*
X335929Y131187D01*
X335947Y131144D01*
X335955Y131097D01*
X335989Y131040D01*
X336014Y130980D01*
X336045Y130945D01*
X336070Y130904D01*
X336121Y130863D01*
X336165Y130814D01*
X336207Y130792D01*
X336244Y130763D01*
X336306Y130742D01*
X336365Y130711D01*
X336419Y130703D01*
X336456Y130691D01*
X336496Y130692D01*
X336550Y130684D01*
X356616Y130684D01*
X356704Y130700D01*
G37*
G36*
X506033Y130441D02*
X506033Y130441D01*
X506099Y130443D01*
X506142Y130461D01*
X506189Y130469D01*
X506246Y130503D01*
X506306Y130528D01*
X506341Y130559D01*
X506382Y130584D01*
X506424Y130635D01*
X506472Y130679D01*
X506494Y130721D01*
X506523Y130758D01*
X506544Y130820D01*
X506575Y130879D01*
X506583Y130933D01*
X506595Y130970D01*
X506594Y131010D01*
X506602Y131064D01*
X506602Y150876D01*
X506586Y150964D01*
X506577Y151052D01*
X506567Y151073D01*
X506563Y151097D01*
X506517Y151174D01*
X506478Y151253D01*
X506461Y151270D01*
X506448Y151290D01*
X506379Y151346D01*
X506315Y151407D01*
X506293Y151416D01*
X506274Y151431D01*
X506190Y151460D01*
X506108Y151495D01*
X506084Y151496D01*
X506062Y151503D01*
X505973Y151501D01*
X505884Y151505D01*
X505861Y151497D01*
X505837Y151497D01*
X505755Y151463D01*
X505670Y151436D01*
X505649Y151420D01*
X505630Y151412D01*
X505592Y151378D01*
X505520Y151324D01*
X485708Y131512D01*
X485657Y131439D01*
X485601Y131370D01*
X485593Y131348D01*
X485579Y131328D01*
X485557Y131242D01*
X485529Y131158D01*
X485529Y131134D01*
X485524Y131111D01*
X485533Y131022D01*
X485535Y130933D01*
X485544Y130911D01*
X485547Y130888D01*
X485586Y130808D01*
X485620Y130726D01*
X485636Y130708D01*
X485646Y130687D01*
X485711Y130626D01*
X485771Y130560D01*
X485792Y130549D01*
X485809Y130533D01*
X485891Y130498D01*
X485971Y130457D01*
X485997Y130454D01*
X486016Y130445D01*
X486066Y130443D01*
X486156Y130430D01*
X505968Y130430D01*
X506033Y130441D01*
G37*
G36*
X596988Y130446D02*
X596988Y130446D01*
X597076Y130455D01*
X597097Y130465D01*
X597121Y130469D01*
X597198Y130515D01*
X597277Y130554D01*
X597294Y130571D01*
X597314Y130584D01*
X597370Y130653D01*
X597431Y130717D01*
X597440Y130739D01*
X597455Y130758D01*
X597484Y130842D01*
X597519Y130924D01*
X597520Y130948D01*
X597527Y130970D01*
X597525Y131059D01*
X597529Y131148D01*
X597521Y131171D01*
X597521Y131195D01*
X597487Y131277D01*
X597460Y131362D01*
X597444Y131383D01*
X597436Y131402D01*
X597402Y131440D01*
X597348Y131512D01*
X577790Y151070D01*
X577717Y151121D01*
X577648Y151177D01*
X577626Y151185D01*
X577606Y151199D01*
X577520Y151221D01*
X577436Y151249D01*
X577412Y151249D01*
X577389Y151255D01*
X577300Y151245D01*
X577211Y151243D01*
X577189Y151234D01*
X577166Y151231D01*
X577086Y151192D01*
X577004Y151158D01*
X576986Y151142D01*
X576965Y151132D01*
X576904Y151067D01*
X576838Y151007D01*
X576827Y150986D01*
X576811Y150969D01*
X576776Y150887D01*
X576735Y150807D01*
X576732Y150781D01*
X576723Y150762D01*
X576721Y150712D01*
X576708Y150622D01*
X576708Y131064D01*
X576719Y130999D01*
X576721Y130933D01*
X576739Y130890D01*
X576747Y130843D01*
X576781Y130786D01*
X576806Y130726D01*
X576837Y130691D01*
X576862Y130650D01*
X576913Y130609D01*
X576957Y130560D01*
X576999Y130538D01*
X577036Y130509D01*
X577098Y130488D01*
X577157Y130457D01*
X577211Y130449D01*
X577248Y130437D01*
X577288Y130438D01*
X577342Y130430D01*
X596900Y130430D01*
X596988Y130446D01*
G37*
G36*
X826327Y130441D02*
X826327Y130441D01*
X826393Y130443D01*
X826436Y130461D01*
X826483Y130469D01*
X826540Y130503D01*
X826600Y130528D01*
X826635Y130559D01*
X826676Y130584D01*
X826718Y130635D01*
X826766Y130679D01*
X826788Y130721D01*
X826817Y130758D01*
X826838Y130820D01*
X826869Y130879D01*
X826877Y130933D01*
X826889Y130970D01*
X826888Y131010D01*
X826896Y131064D01*
X826896Y149860D01*
X826880Y149948D01*
X826871Y150036D01*
X826861Y150057D01*
X826857Y150081D01*
X826811Y150158D01*
X826772Y150237D01*
X826755Y150254D01*
X826742Y150274D01*
X826673Y150330D01*
X826609Y150391D01*
X826587Y150400D01*
X826568Y150415D01*
X826484Y150444D01*
X826402Y150479D01*
X826378Y150480D01*
X826356Y150487D01*
X826267Y150485D01*
X826178Y150489D01*
X826155Y150481D01*
X826131Y150481D01*
X826049Y150447D01*
X825964Y150420D01*
X825943Y150404D01*
X825924Y150396D01*
X825886Y150362D01*
X825814Y150308D01*
X807018Y131512D01*
X806967Y131439D01*
X806911Y131370D01*
X806903Y131348D01*
X806889Y131328D01*
X806867Y131242D01*
X806839Y131158D01*
X806839Y131134D01*
X806834Y131111D01*
X806843Y131022D01*
X806845Y130933D01*
X806854Y130911D01*
X806857Y130888D01*
X806896Y130808D01*
X806930Y130726D01*
X806946Y130708D01*
X806956Y130687D01*
X807021Y130626D01*
X807081Y130560D01*
X807102Y130549D01*
X807119Y130533D01*
X807201Y130498D01*
X807281Y130457D01*
X807307Y130454D01*
X807326Y130445D01*
X807376Y130443D01*
X807466Y130430D01*
X826262Y130430D01*
X826327Y130441D01*
G37*
D10*
X29210Y57150D03*
X958850Y57150D03*
X914400Y640080D03*
X29210Y640080D03*
D11*
X139700Y413004D02*
X139700Y399796D01*
X165100Y399796D02*
X165100Y413004D01*
X190500Y413004D02*
X190500Y399796D01*
X215900Y399796D02*
X215900Y413004D01*
X241300Y413004D02*
X241300Y399796D01*
X266700Y399796D02*
X266700Y413004D01*
X292100Y413004D02*
X292100Y399796D01*
X317500Y399796D02*
X317500Y413004D01*
X342900Y413004D02*
X342900Y399796D01*
X368300Y399796D02*
X368300Y413004D01*
X393700Y413004D02*
X393700Y399796D01*
X419100Y399796D02*
X419100Y413004D01*
X444500Y413004D02*
X444500Y399796D01*
X469900Y399796D02*
X469900Y413004D01*
X469900Y475996D02*
X469900Y489204D01*
X444500Y489204D02*
X444500Y475996D01*
X419100Y475996D02*
X419100Y489204D01*
X393700Y489204D02*
X393700Y475996D01*
X368300Y475996D02*
X368300Y489204D01*
X342900Y489204D02*
X342900Y475996D01*
X317500Y475996D02*
X317500Y489204D01*
X292100Y489204D02*
X292100Y475996D01*
X266700Y475996D02*
X266700Y489204D01*
X241300Y489204D02*
X241300Y475996D01*
X215900Y475996D02*
X215900Y489204D01*
X190500Y489204D02*
X190500Y475996D01*
X165100Y475996D02*
X165100Y489204D01*
X139700Y489204D02*
X139700Y475996D01*
D12*
X330200Y349250D03*
X355600Y349250D03*
X381000Y349250D03*
D13*
X114300Y763270D03*
X139700Y760730D03*
X165100Y763270D03*
X190500Y760730D03*
X215900Y763270D03*
X241300Y760730D03*
D14*
X38100Y736600D03*
X63500Y736600D03*
X63500Y762000D03*
X38100Y762000D03*
X38100Y711200D03*
X63500Y711200D03*
D12*
X965200Y606100D03*
X965200Y486100D03*
D15*
X254000Y533400D03*
X355600Y533400D03*
X406400Y584200D03*
X508000Y584200D03*
X406400Y635000D03*
X508000Y635000D03*
X254000Y635000D03*
X355600Y635000D03*
X254000Y584200D03*
X355600Y584200D03*
X609600Y469900D03*
X711200Y469900D03*
X508000Y685800D03*
X609600Y685800D03*
X381000Y685800D03*
X482600Y685800D03*
X254000Y685800D03*
X355600Y685800D03*
D11*
X819150Y533654D02*
X819150Y520446D01*
X844550Y520446D02*
X844550Y533654D01*
X869950Y533654D02*
X869950Y520446D01*
X895350Y520446D02*
X895350Y533654D01*
X895350Y596646D02*
X895350Y609854D01*
X869950Y609854D02*
X869950Y596646D01*
X844550Y596646D02*
X844550Y609854D01*
X819150Y609854D02*
X819150Y596646D01*
D15*
X609600Y508000D03*
X711200Y508000D03*
X762000Y736600D03*
X863600Y736600D03*
X762000Y774700D03*
X863600Y774700D03*
D16*
X171450Y577850D03*
D17*
X146050Y577850D03*
D16*
X819150Y679450D03*
D17*
X793750Y679450D03*
D16*
X654050Y641350D03*
D17*
X628650Y641350D03*
D16*
X654050Y571500D03*
D17*
X628650Y571500D03*
D18*
X323850Y749300D03*
X349250Y749300D03*
X565150Y749300D03*
X590550Y749300D03*
X444500Y749300D03*
X469900Y749300D03*
D19*
X140208Y708406D02*
X124968Y708406D01*
X124968Y663194D02*
X140208Y663194D01*
X189992Y708406D02*
X205232Y708406D01*
X205232Y663194D02*
X189992Y663194D01*
X715518Y378206D02*
X730758Y378206D01*
X730758Y332994D02*
X715518Y332994D01*
X780542Y378206D02*
X795782Y378206D01*
X795782Y332994D02*
X780542Y332994D01*
X610108Y378206D02*
X594868Y378206D01*
X594868Y332994D02*
X610108Y332994D01*
X659892Y378206D02*
X675132Y378206D01*
X675132Y332994D02*
X659892Y332994D01*
D20*
X913000Y777710D03*
X963000Y727710D03*
X913000Y677710D03*
X913000Y702710D03*
X913000Y752710D03*
D21*
X25400Y482600D03*
X50800Y482600D03*
X25400Y406400D03*
X50800Y406400D03*
X749300Y469900D03*
X774700Y469900D03*
X749300Y508000D03*
X774700Y508000D03*
D12*
X76200Y603250D03*
X76200Y558800D03*
D22*
X19050Y558800D03*
X19050Y603250D03*
D18*
X76200Y114300D03*
X50800Y139700D03*
X101600Y139700D03*
X76200Y254000D03*
X50800Y279400D03*
X101600Y279400D03*
D23*
X850900Y400050D03*
X952500Y400050D03*
D24*
X868934Y391414D02*
X869155Y390627D01*
X869396Y389845D01*
X869655Y389070D01*
X869934Y388301D01*
X870231Y387539D01*
X870547Y386785D01*
X870881Y386038D01*
X871234Y385300D01*
X871604Y384571D01*
X871993Y383852D01*
X872398Y383142D01*
X872821Y382442D01*
X873261Y381753D01*
X873718Y381074D01*
X874191Y380407D01*
X874681Y379752D01*
X875186Y379109D01*
X875707Y378479D01*
X876244Y377862D01*
X876795Y377258D01*
X877361Y376667D01*
X877941Y376091D01*
X878535Y375529D01*
X879143Y374982D01*
X879764Y374450D01*
X880397Y373933D01*
X881044Y373432D01*
X881702Y372947D01*
X882372Y372478D01*
X883053Y372026D01*
X883746Y371590D01*
X884448Y371172D01*
X885161Y370771D01*
X885883Y370388D01*
X886615Y370022D01*
X887355Y369674D01*
X888104Y369345D01*
X888860Y369034D01*
X889624Y368742D01*
X890395Y368469D01*
X891172Y368214D01*
X891955Y367979D01*
X892744Y367763D01*
X893537Y367566D01*
X894336Y367389D01*
X895138Y367232D01*
X895944Y367094D01*
X896753Y366976D01*
X897565Y366878D01*
X898379Y366799D01*
X899195Y366741D01*
X900012Y366703D01*
X900829Y366685D01*
X901647Y366686D01*
X902465Y366708D01*
X903281Y366750D01*
X904097Y366812D01*
X904910Y366894D01*
X905722Y366996D01*
X906531Y367117D01*
X907336Y367259D01*
X908138Y367420D01*
X908935Y367601D01*
X909728Y367801D01*
X910516Y368020D01*
X911298Y368259D01*
X912074Y368517D01*
X912844Y368794D01*
X913606Y369090D01*
X914361Y369404D01*
X915108Y369736D01*
X915847Y370087D01*
X916577Y370456D01*
X917297Y370843D01*
X918008Y371247D01*
X918709Y371668D01*
X919399Y372107D01*
X920079Y372562D01*
X920747Y373034D01*
X921403Y373522D01*
X922047Y374026D01*
X922678Y374545D01*
X923297Y375080D01*
X923902Y375630D01*
X924494Y376195D01*
X925071Y376773D01*
X925635Y377366D01*
X926183Y377973D01*
X926717Y378593D01*
X927235Y379225D01*
X927737Y379870D01*
X928224Y380528D01*
X928694Y381197D01*
X929148Y381877D01*
X929585Y382568D01*
X930005Y383270D01*
X930407Y383982D01*
X930792Y384703D01*
X931159Y385434D01*
X931509Y386173D01*
X931840Y386921D01*
X932152Y387677D01*
X932446Y388440D01*
X932721Y389210D01*
X932977Y389987D01*
X933214Y390769D01*
X933432Y391558D01*
X933631Y392351D01*
X933810Y393149D01*
X933969Y393951D01*
X934108Y394757D01*
X934228Y395566D01*
X934328Y396377D01*
X934408Y397191D01*
X934468Y398007D01*
X934508Y398824D01*
X934528Y399641D01*
X934528Y400459D01*
X934508Y401276D01*
X934468Y402093D01*
X934408Y402909D01*
X934328Y403723D01*
X934228Y404534D01*
X934108Y405343D01*
X933969Y406149D01*
X933810Y406951D01*
X933631Y407749D01*
X933432Y408542D01*
X933214Y409331D01*
X932977Y410113D01*
X932721Y410890D01*
X932446Y411660D01*
X932152Y412423D01*
X931840Y413179D01*
X931509Y413927D01*
X931159Y414666D01*
X930792Y415397D01*
X930407Y416118D01*
X930005Y416830D01*
X929585Y417532D01*
X929148Y418223D01*
X928694Y418903D01*
X928224Y419572D01*
X927737Y420230D01*
X927235Y420875D01*
X926717Y421507D01*
X926183Y422127D01*
X925635Y422734D01*
X925071Y423327D01*
X924494Y423905D01*
X923902Y424470D01*
X923297Y425020D01*
X922678Y425555D01*
X922047Y426074D01*
X921403Y426578D01*
X920747Y427066D01*
X920079Y427538D01*
X919399Y427993D01*
X918709Y428432D01*
X918008Y428853D01*
X917297Y429257D01*
X916577Y429644D01*
X915847Y430013D01*
X915108Y430364D01*
X914361Y430696D01*
X913606Y431010D01*
X912844Y431306D01*
X912074Y431583D01*
X911298Y431841D01*
X910516Y432080D01*
X909728Y432299D01*
X908935Y432499D01*
X908138Y432680D01*
X907336Y432841D01*
X906531Y432983D01*
X905722Y433104D01*
X904910Y433206D01*
X904097Y433288D01*
X903281Y433350D01*
X902465Y433392D01*
X901647Y433414D01*
X900829Y433415D01*
X900012Y433397D01*
X899195Y433359D01*
X898379Y433301D01*
X897565Y433222D01*
X896753Y433124D01*
X895944Y433006D01*
X895138Y432868D01*
X894336Y432711D01*
X893537Y432534D01*
X892744Y432337D01*
X891955Y432121D01*
X891172Y431886D01*
X890395Y431631D01*
X889624Y431358D01*
X888860Y431066D01*
X888104Y430755D01*
X887355Y430426D01*
X886615Y430078D01*
X885883Y429712D01*
X885161Y429329D01*
X884448Y428928D01*
X883746Y428510D01*
X883053Y428074D01*
X882372Y427622D01*
X881702Y427153D01*
X881044Y426668D01*
X880397Y426167D01*
X879764Y425650D01*
X879143Y425118D01*
X878535Y424571D01*
X877941Y424009D01*
X877361Y423433D01*
X876795Y422842D01*
X876244Y422238D01*
X875707Y421621D01*
X875186Y420991D01*
X874681Y420348D01*
X874191Y419693D01*
X873718Y419026D01*
X873261Y418347D01*
X872821Y417658D01*
X872398Y416958D01*
X871993Y416248D01*
X871604Y415529D01*
X871234Y414800D01*
X870881Y414062D01*
X870547Y413315D01*
X870231Y412561D01*
X869934Y411799D01*
X869655Y411030D01*
X869396Y410255D01*
X869155Y409473D01*
X868934Y408686D01*
X919226Y408178D02*
X919019Y408608D01*
X918801Y409032D01*
X918573Y409451D01*
X918335Y409864D01*
X918087Y410271D01*
X917828Y410672D01*
X917561Y411067D01*
X917283Y411454D01*
X916996Y411835D01*
X916700Y412209D01*
X916395Y412576D01*
X916081Y412935D01*
X915758Y413286D01*
X915427Y413629D01*
X915087Y413964D01*
X914740Y414290D01*
X914384Y414608D01*
X914021Y414917D01*
X913650Y415217D01*
X913273Y415508D01*
X912888Y415790D01*
X912496Y416062D01*
X912098Y416324D01*
X911693Y416577D01*
X911283Y416820D01*
X910866Y417052D01*
X910445Y417275D01*
X910017Y417486D01*
X909585Y417688D01*
X909148Y417879D01*
X908706Y418059D01*
X908260Y418228D01*
X907810Y418386D01*
X907357Y418533D01*
X906900Y418669D01*
X906439Y418794D01*
X905976Y418907D01*
X905510Y419009D01*
X905042Y419100D01*
X904572Y419179D01*
X904100Y419247D01*
X903626Y419303D01*
X903151Y419347D01*
X902676Y419380D01*
X902199Y419401D01*
X901722Y419410D01*
X901245Y419408D01*
X900769Y419394D01*
X900292Y419369D01*
X899817Y419332D01*
X899343Y419283D01*
X898870Y419223D01*
X898398Y419151D01*
X897929Y419067D01*
X897461Y418972D01*
X896996Y418866D01*
X896534Y418748D01*
X896075Y418619D01*
X895619Y418479D01*
X895167Y418328D01*
X894718Y418166D01*
X894274Y417993D01*
X893834Y417809D01*
X893399Y417614D01*
X892968Y417408D01*
X892543Y417193D01*
X892123Y416967D01*
X891709Y416730D01*
X891301Y416484D01*
X890898Y416227D01*
X890503Y415961D01*
X890114Y415686D01*
X889731Y415401D01*
X889356Y415106D01*
X888988Y414803D01*
X888628Y414490D01*
X888275Y414169D01*
X887931Y413840D01*
X887594Y413502D01*
X887266Y413155D01*
X886947Y412801D01*
X886636Y412440D01*
X886334Y412070D01*
X886041Y411694D01*
X885758Y411310D01*
X885484Y410920D01*
X885220Y410523D01*
X884965Y410120D01*
X884721Y409710D01*
X884486Y409295D01*
X884262Y408874D01*
X884048Y408448D01*
X883845Y408016D01*
X883652Y407580D01*
X883470Y407139D01*
X883299Y406694D01*
X883139Y406245D01*
X882990Y405792D01*
X882852Y405335D01*
X882725Y404876D01*
X882609Y404413D01*
X882505Y403948D01*
X882412Y403480D01*
X882331Y403010D01*
X882261Y402538D01*
X882203Y402065D01*
X882156Y401590D01*
X882121Y401115D01*
X882098Y400638D01*
X882086Y400161D01*
X882086Y399685D01*
X882098Y399208D01*
X882121Y398731D01*
X882156Y398256D01*
X882203Y397781D01*
X882261Y397308D01*
X882331Y396836D01*
X882412Y396366D01*
X882505Y395898D01*
X882609Y395433D01*
X882725Y394970D01*
X882852Y394511D01*
X882990Y394054D01*
X883139Y393601D01*
X883299Y393152D01*
X883470Y392707D01*
X883652Y392266D01*
X883845Y391830D01*
X884048Y391398D01*
X884262Y390972D01*
X884486Y390551D01*
X884721Y390136D01*
X884965Y389726D01*
X885220Y389323D01*
X885484Y388926D01*
X885758Y388536D01*
X886041Y388152D01*
X886334Y387776D01*
X886636Y387406D01*
X886947Y387045D01*
X887266Y386691D01*
X887594Y386344D01*
X887931Y386006D01*
X888275Y385677D01*
X888628Y385356D01*
X888988Y385043D01*
X889356Y384740D01*
X889731Y384445D01*
X890114Y384160D01*
X890503Y383885D01*
X890898Y383619D01*
X891301Y383362D01*
X891709Y383116D01*
X892123Y382879D01*
X892543Y382653D01*
X892968Y382438D01*
X893399Y382232D01*
X893834Y382037D01*
X894274Y381853D01*
X894718Y381680D01*
X895167Y381518D01*
X895619Y381367D01*
X896075Y381227D01*
X896534Y381098D01*
X896996Y380980D01*
X897461Y380874D01*
X897929Y380779D01*
X898398Y380695D01*
X898870Y380623D01*
X899343Y380563D01*
X899817Y380514D01*
X900292Y380477D01*
X900769Y380452D01*
X901245Y380438D01*
X901722Y380436D01*
X902199Y380445D01*
X902676Y380466D01*
X903151Y380499D01*
X903626Y380543D01*
X904100Y380599D01*
X904572Y380667D01*
X905042Y380746D01*
X905510Y380837D01*
X905976Y380939D01*
X906439Y381052D01*
X906900Y381177D01*
X907357Y381313D01*
X907810Y381460D01*
X908260Y381618D01*
X908706Y381787D01*
X909148Y381967D01*
X909585Y382158D01*
X910017Y382360D01*
X910445Y382571D01*
X910866Y382794D01*
X911283Y383026D01*
X911693Y383269D01*
X912098Y383522D01*
X912496Y383784D01*
X912888Y384056D01*
X913273Y384338D01*
X913650Y384629D01*
X914021Y384929D01*
X914384Y385238D01*
X914740Y385556D01*
X915087Y385882D01*
X915427Y386217D01*
X915758Y386560D01*
X916081Y386911D01*
X916395Y387270D01*
X916700Y387637D01*
X916996Y388011D01*
X917283Y388392D01*
X917561Y388779D01*
X917828Y389174D01*
X918087Y389575D01*
X918335Y389982D01*
X918573Y390395D01*
X918801Y390814D01*
X919019Y391238D01*
X919226Y391668D01*
X898902Y400050D02*
X898904Y400155D01*
X898910Y400259D01*
X898920Y400363D01*
X898934Y400467D01*
X898952Y400570D01*
X898973Y400672D01*
X898999Y400774D01*
X899028Y400874D01*
X899062Y400973D01*
X899099Y401071D01*
X899139Y401167D01*
X899184Y401262D01*
X899232Y401355D01*
X899283Y401446D01*
X899338Y401535D01*
X899396Y401622D01*
X899458Y401707D01*
X899522Y401789D01*
X899590Y401869D01*
X899661Y401946D01*
X899735Y402020D01*
X899811Y402091D01*
X899890Y402160D01*
X899972Y402225D01*
X900056Y402288D01*
X900142Y402347D01*
X900230Y402402D01*
X900321Y402455D01*
X900414Y402504D01*
X900508Y402549D01*
X900604Y402590D01*
X900701Y402628D01*
X900800Y402663D01*
X900900Y402693D01*
X901001Y402720D01*
X901103Y402742D01*
X901206Y402761D01*
X901310Y402776D01*
X901414Y402787D01*
X901518Y402794D01*
X901623Y402797D01*
X901727Y402796D01*
X901832Y402791D01*
X901936Y402782D01*
X902040Y402769D01*
X902143Y402752D01*
X902246Y402731D01*
X902347Y402707D01*
X902448Y402678D01*
X902547Y402646D01*
X902646Y402610D01*
X902742Y402570D01*
X902838Y402527D01*
X902931Y402480D01*
X903022Y402429D01*
X903112Y402375D01*
X903200Y402318D01*
X903285Y402257D01*
X903368Y402193D01*
X903448Y402126D01*
X903526Y402056D01*
X903601Y401983D01*
X903673Y401907D01*
X903742Y401829D01*
X903808Y401748D01*
X903871Y401665D01*
X903931Y401579D01*
X903988Y401491D01*
X904041Y401401D01*
X904091Y401309D01*
X904137Y401215D01*
X904179Y401119D01*
X904218Y401022D01*
X904253Y400924D01*
X904285Y400824D01*
X904312Y400723D01*
X904336Y400621D01*
X904356Y400518D01*
X904372Y400415D01*
X904384Y400311D01*
X904392Y400207D01*
X904396Y400102D01*
X904396Y399998D01*
X904392Y399893D01*
X904384Y399789D01*
X904372Y399685D01*
X904356Y399582D01*
X904336Y399479D01*
X904312Y399377D01*
X904285Y399276D01*
X904253Y399176D01*
X904218Y399078D01*
X904179Y398981D01*
X904137Y398885D01*
X904091Y398791D01*
X904041Y398699D01*
X903988Y398609D01*
X903931Y398521D01*
X903871Y398435D01*
X903808Y398352D01*
X903742Y398271D01*
X903673Y398193D01*
X903601Y398117D01*
X903526Y398044D01*
X903448Y397974D01*
X903368Y397907D01*
X903285Y397843D01*
X903200Y397782D01*
X903112Y397725D01*
X903023Y397671D01*
X902931Y397620D01*
X902838Y397573D01*
X902742Y397530D01*
X902646Y397490D01*
X902547Y397454D01*
X902448Y397422D01*
X902347Y397393D01*
X902246Y397369D01*
X902143Y397348D01*
X902040Y397331D01*
X901936Y397318D01*
X901832Y397309D01*
X901727Y397304D01*
X901623Y397303D01*
X901518Y397306D01*
X901414Y397313D01*
X901310Y397324D01*
X901206Y397339D01*
X901103Y397358D01*
X901001Y397380D01*
X900900Y397407D01*
X900800Y397437D01*
X900701Y397472D01*
X900604Y397510D01*
X900508Y397551D01*
X900414Y397596D01*
X900321Y397645D01*
X900230Y397698D01*
X900142Y397753D01*
X900056Y397812D01*
X899972Y397875D01*
X899890Y397940D01*
X899811Y398009D01*
X899735Y398080D01*
X899661Y398154D01*
X899590Y398231D01*
X899522Y398311D01*
X899458Y398393D01*
X899396Y398478D01*
X899338Y398565D01*
X899283Y398654D01*
X899232Y398745D01*
X899184Y398838D01*
X899139Y398933D01*
X899099Y399029D01*
X899062Y399127D01*
X899028Y399226D01*
X898999Y399326D01*
X898973Y399428D01*
X898952Y399530D01*
X898934Y399633D01*
X898920Y399737D01*
X898910Y399841D01*
X898904Y399945D01*
X898902Y400050D01*
D25*
X882396Y400050D02*
X850900Y400050D01*
X901700Y400050D02*
X950468Y400050D01*
D23*
X850900Y311150D03*
X952500Y311150D03*
D24*
X868934Y302514D02*
X869155Y301727D01*
X869396Y300945D01*
X869655Y300170D01*
X869934Y299401D01*
X870231Y298639D01*
X870547Y297885D01*
X870881Y297138D01*
X871234Y296400D01*
X871604Y295671D01*
X871993Y294952D01*
X872398Y294242D01*
X872821Y293542D01*
X873261Y292853D01*
X873718Y292174D01*
X874191Y291507D01*
X874681Y290852D01*
X875186Y290209D01*
X875707Y289579D01*
X876244Y288962D01*
X876795Y288358D01*
X877361Y287767D01*
X877941Y287191D01*
X878535Y286629D01*
X879143Y286082D01*
X879764Y285550D01*
X880397Y285033D01*
X881044Y284532D01*
X881702Y284047D01*
X882372Y283578D01*
X883053Y283126D01*
X883746Y282690D01*
X884448Y282272D01*
X885161Y281871D01*
X885883Y281488D01*
X886615Y281122D01*
X887355Y280774D01*
X888104Y280445D01*
X888860Y280134D01*
X889624Y279842D01*
X890395Y279569D01*
X891172Y279314D01*
X891955Y279079D01*
X892744Y278863D01*
X893537Y278666D01*
X894336Y278489D01*
X895138Y278332D01*
X895944Y278194D01*
X896753Y278076D01*
X897565Y277978D01*
X898379Y277899D01*
X899195Y277841D01*
X900012Y277803D01*
X900829Y277785D01*
X901647Y277786D01*
X902465Y277808D01*
X903281Y277850D01*
X904097Y277912D01*
X904910Y277994D01*
X905722Y278096D01*
X906531Y278217D01*
X907336Y278359D01*
X908138Y278520D01*
X908935Y278701D01*
X909728Y278901D01*
X910516Y279120D01*
X911298Y279359D01*
X912074Y279617D01*
X912844Y279894D01*
X913606Y280190D01*
X914361Y280504D01*
X915108Y280836D01*
X915847Y281187D01*
X916577Y281556D01*
X917297Y281943D01*
X918008Y282347D01*
X918709Y282768D01*
X919399Y283207D01*
X920079Y283662D01*
X920747Y284134D01*
X921403Y284622D01*
X922047Y285126D01*
X922678Y285645D01*
X923297Y286180D01*
X923902Y286730D01*
X924494Y287295D01*
X925071Y287873D01*
X925635Y288466D01*
X926183Y289073D01*
X926717Y289693D01*
X927235Y290325D01*
X927737Y290970D01*
X928224Y291628D01*
X928694Y292297D01*
X929148Y292977D01*
X929585Y293668D01*
X930005Y294370D01*
X930407Y295082D01*
X930792Y295803D01*
X931159Y296534D01*
X931509Y297273D01*
X931840Y298021D01*
X932152Y298777D01*
X932446Y299540D01*
X932721Y300310D01*
X932977Y301087D01*
X933214Y301869D01*
X933432Y302658D01*
X933631Y303451D01*
X933810Y304249D01*
X933969Y305051D01*
X934108Y305857D01*
X934228Y306666D01*
X934328Y307477D01*
X934408Y308291D01*
X934468Y309107D01*
X934508Y309924D01*
X934528Y310741D01*
X934528Y311559D01*
X934508Y312376D01*
X934468Y313193D01*
X934408Y314009D01*
X934328Y314823D01*
X934228Y315634D01*
X934108Y316443D01*
X933969Y317249D01*
X933810Y318051D01*
X933631Y318849D01*
X933432Y319642D01*
X933214Y320431D01*
X932977Y321213D01*
X932721Y321990D01*
X932446Y322760D01*
X932152Y323523D01*
X931840Y324279D01*
X931509Y325027D01*
X931159Y325766D01*
X930792Y326497D01*
X930407Y327218D01*
X930005Y327930D01*
X929585Y328632D01*
X929148Y329323D01*
X928694Y330003D01*
X928224Y330672D01*
X927737Y331330D01*
X927235Y331975D01*
X926717Y332607D01*
X926183Y333227D01*
X925635Y333834D01*
X925071Y334427D01*
X924494Y335005D01*
X923902Y335570D01*
X923297Y336120D01*
X922678Y336655D01*
X922047Y337174D01*
X921403Y337678D01*
X920747Y338166D01*
X920079Y338638D01*
X919399Y339093D01*
X918709Y339532D01*
X918008Y339953D01*
X917297Y340357D01*
X916577Y340744D01*
X915847Y341113D01*
X915108Y341464D01*
X914361Y341796D01*
X913606Y342110D01*
X912844Y342406D01*
X912074Y342683D01*
X911298Y342941D01*
X910516Y343180D01*
X909728Y343399D01*
X908935Y343599D01*
X908138Y343780D01*
X907336Y343941D01*
X906531Y344083D01*
X905722Y344204D01*
X904910Y344306D01*
X904097Y344388D01*
X903281Y344450D01*
X902465Y344492D01*
X901647Y344514D01*
X900829Y344515D01*
X900012Y344497D01*
X899195Y344459D01*
X898379Y344401D01*
X897565Y344322D01*
X896753Y344224D01*
X895944Y344106D01*
X895138Y343968D01*
X894336Y343811D01*
X893537Y343634D01*
X892744Y343437D01*
X891955Y343221D01*
X891172Y342986D01*
X890395Y342731D01*
X889624Y342458D01*
X888860Y342166D01*
X888104Y341855D01*
X887355Y341526D01*
X886615Y341178D01*
X885883Y340812D01*
X885161Y340429D01*
X884448Y340028D01*
X883746Y339610D01*
X883053Y339174D01*
X882372Y338722D01*
X881702Y338253D01*
X881044Y337768D01*
X880397Y337267D01*
X879764Y336750D01*
X879143Y336218D01*
X878535Y335671D01*
X877941Y335109D01*
X877361Y334533D01*
X876795Y333942D01*
X876244Y333338D01*
X875707Y332721D01*
X875186Y332091D01*
X874681Y331448D01*
X874191Y330793D01*
X873718Y330126D01*
X873261Y329447D01*
X872821Y328758D01*
X872398Y328058D01*
X871993Y327348D01*
X871604Y326629D01*
X871234Y325900D01*
X870881Y325162D01*
X870547Y324415D01*
X870231Y323661D01*
X869934Y322899D01*
X869655Y322130D01*
X869396Y321355D01*
X869155Y320573D01*
X868934Y319786D01*
X919226Y319278D02*
X919019Y319708D01*
X918801Y320132D01*
X918573Y320551D01*
X918335Y320964D01*
X918087Y321371D01*
X917828Y321772D01*
X917561Y322167D01*
X917283Y322554D01*
X916996Y322935D01*
X916700Y323309D01*
X916395Y323676D01*
X916081Y324035D01*
X915758Y324386D01*
X915427Y324729D01*
X915087Y325064D01*
X914740Y325390D01*
X914384Y325708D01*
X914021Y326017D01*
X913650Y326317D01*
X913273Y326608D01*
X912888Y326890D01*
X912496Y327162D01*
X912098Y327424D01*
X911693Y327677D01*
X911283Y327920D01*
X910866Y328152D01*
X910445Y328375D01*
X910017Y328586D01*
X909585Y328788D01*
X909148Y328979D01*
X908706Y329159D01*
X908260Y329328D01*
X907810Y329486D01*
X907357Y329633D01*
X906900Y329769D01*
X906439Y329894D01*
X905976Y330007D01*
X905510Y330109D01*
X905042Y330200D01*
X904572Y330279D01*
X904100Y330347D01*
X903626Y330403D01*
X903151Y330447D01*
X902676Y330480D01*
X902199Y330501D01*
X901722Y330510D01*
X901245Y330508D01*
X900769Y330494D01*
X900292Y330469D01*
X899817Y330432D01*
X899343Y330383D01*
X898870Y330323D01*
X898398Y330251D01*
X897929Y330167D01*
X897461Y330072D01*
X896996Y329966D01*
X896534Y329848D01*
X896075Y329719D01*
X895619Y329579D01*
X895167Y329428D01*
X894718Y329266D01*
X894274Y329093D01*
X893834Y328909D01*
X893399Y328714D01*
X892968Y328508D01*
X892543Y328293D01*
X892123Y328067D01*
X891709Y327830D01*
X891301Y327584D01*
X890898Y327327D01*
X890503Y327061D01*
X890114Y326786D01*
X889731Y326501D01*
X889356Y326206D01*
X888988Y325903D01*
X888628Y325590D01*
X888275Y325269D01*
X887931Y324940D01*
X887594Y324602D01*
X887266Y324255D01*
X886947Y323901D01*
X886636Y323540D01*
X886334Y323170D01*
X886041Y322794D01*
X885758Y322410D01*
X885484Y322020D01*
X885220Y321623D01*
X884965Y321220D01*
X884721Y320810D01*
X884486Y320395D01*
X884262Y319974D01*
X884048Y319548D01*
X883845Y319116D01*
X883652Y318680D01*
X883470Y318239D01*
X883299Y317794D01*
X883139Y317345D01*
X882990Y316892D01*
X882852Y316435D01*
X882725Y315976D01*
X882609Y315513D01*
X882505Y315048D01*
X882412Y314580D01*
X882331Y314110D01*
X882261Y313638D01*
X882203Y313165D01*
X882156Y312690D01*
X882121Y312215D01*
X882098Y311738D01*
X882086Y311261D01*
X882086Y310785D01*
X882098Y310308D01*
X882121Y309831D01*
X882156Y309356D01*
X882203Y308881D01*
X882261Y308408D01*
X882331Y307936D01*
X882412Y307466D01*
X882505Y306998D01*
X882609Y306533D01*
X882725Y306070D01*
X882852Y305611D01*
X882990Y305154D01*
X883139Y304701D01*
X883299Y304252D01*
X883470Y303807D01*
X883652Y303366D01*
X883845Y302930D01*
X884048Y302498D01*
X884262Y302072D01*
X884486Y301651D01*
X884721Y301236D01*
X884965Y300826D01*
X885220Y300423D01*
X885484Y300026D01*
X885758Y299636D01*
X886041Y299252D01*
X886334Y298876D01*
X886636Y298506D01*
X886947Y298145D01*
X887266Y297791D01*
X887594Y297444D01*
X887931Y297106D01*
X888275Y296777D01*
X888628Y296456D01*
X888988Y296143D01*
X889356Y295840D01*
X889731Y295545D01*
X890114Y295260D01*
X890503Y294985D01*
X890898Y294719D01*
X891301Y294462D01*
X891709Y294216D01*
X892123Y293979D01*
X892543Y293753D01*
X892968Y293538D01*
X893399Y293332D01*
X893834Y293137D01*
X894274Y292953D01*
X894718Y292780D01*
X895167Y292618D01*
X895619Y292467D01*
X896075Y292327D01*
X896534Y292198D01*
X896996Y292080D01*
X897461Y291974D01*
X897929Y291879D01*
X898398Y291795D01*
X898870Y291723D01*
X899343Y291663D01*
X899817Y291614D01*
X900292Y291577D01*
X900769Y291552D01*
X901245Y291538D01*
X901722Y291536D01*
X902199Y291545D01*
X902676Y291566D01*
X903151Y291599D01*
X903626Y291643D01*
X904100Y291699D01*
X904572Y291767D01*
X905042Y291846D01*
X905510Y291937D01*
X905976Y292039D01*
X906439Y292152D01*
X906900Y292277D01*
X907357Y292413D01*
X907810Y292560D01*
X908260Y292718D01*
X908706Y292887D01*
X909148Y293067D01*
X909585Y293258D01*
X910017Y293460D01*
X910445Y293671D01*
X910866Y293894D01*
X911283Y294126D01*
X911693Y294369D01*
X912098Y294622D01*
X912496Y294884D01*
X912888Y295156D01*
X913273Y295438D01*
X913650Y295729D01*
X914021Y296029D01*
X914384Y296338D01*
X914740Y296656D01*
X915087Y296982D01*
X915427Y297317D01*
X915758Y297660D01*
X916081Y298011D01*
X916395Y298370D01*
X916700Y298737D01*
X916996Y299111D01*
X917283Y299492D01*
X917561Y299879D01*
X917828Y300274D01*
X918087Y300675D01*
X918335Y301082D01*
X918573Y301495D01*
X918801Y301914D01*
X919019Y302338D01*
X919226Y302768D01*
X898902Y311150D02*
X898904Y311255D01*
X898910Y311359D01*
X898920Y311463D01*
X898934Y311567D01*
X898952Y311670D01*
X898973Y311772D01*
X898999Y311874D01*
X899028Y311974D01*
X899062Y312073D01*
X899099Y312171D01*
X899139Y312267D01*
X899184Y312362D01*
X899232Y312455D01*
X899283Y312546D01*
X899338Y312635D01*
X899396Y312722D01*
X899458Y312807D01*
X899522Y312889D01*
X899590Y312969D01*
X899661Y313046D01*
X899735Y313120D01*
X899811Y313191D01*
X899890Y313260D01*
X899972Y313325D01*
X900056Y313388D01*
X900142Y313447D01*
X900230Y313502D01*
X900321Y313555D01*
X900414Y313604D01*
X900508Y313649D01*
X900604Y313690D01*
X900701Y313728D01*
X900800Y313763D01*
X900900Y313793D01*
X901001Y313820D01*
X901103Y313842D01*
X901206Y313861D01*
X901310Y313876D01*
X901414Y313887D01*
X901518Y313894D01*
X901623Y313897D01*
X901727Y313896D01*
X901832Y313891D01*
X901936Y313882D01*
X902040Y313869D01*
X902143Y313852D01*
X902246Y313831D01*
X902347Y313807D01*
X902448Y313778D01*
X902547Y313746D01*
X902646Y313710D01*
X902742Y313670D01*
X902838Y313627D01*
X902931Y313580D01*
X903022Y313529D01*
X903112Y313475D01*
X903200Y313418D01*
X903285Y313357D01*
X903368Y313293D01*
X903448Y313226D01*
X903526Y313156D01*
X903601Y313083D01*
X903673Y313007D01*
X903742Y312929D01*
X903808Y312848D01*
X903871Y312765D01*
X903931Y312679D01*
X903988Y312591D01*
X904041Y312501D01*
X904091Y312409D01*
X904137Y312315D01*
X904179Y312219D01*
X904218Y312122D01*
X904253Y312024D01*
X904285Y311924D01*
X904312Y311823D01*
X904336Y311721D01*
X904356Y311618D01*
X904372Y311515D01*
X904384Y311411D01*
X904392Y311307D01*
X904396Y311202D01*
X904396Y311098D01*
X904392Y310993D01*
X904384Y310889D01*
X904372Y310785D01*
X904356Y310682D01*
X904336Y310579D01*
X904312Y310477D01*
X904285Y310376D01*
X904253Y310276D01*
X904218Y310178D01*
X904179Y310081D01*
X904137Y309985D01*
X904091Y309891D01*
X904041Y309799D01*
X903988Y309709D01*
X903931Y309621D01*
X903871Y309535D01*
X903808Y309452D01*
X903742Y309371D01*
X903673Y309293D01*
X903601Y309217D01*
X903526Y309144D01*
X903448Y309074D01*
X903368Y309007D01*
X903285Y308943D01*
X903200Y308882D01*
X903112Y308825D01*
X903023Y308771D01*
X902931Y308720D01*
X902838Y308673D01*
X902742Y308630D01*
X902646Y308590D01*
X902547Y308554D01*
X902448Y308522D01*
X902347Y308493D01*
X902246Y308469D01*
X902143Y308448D01*
X902040Y308431D01*
X901936Y308418D01*
X901832Y308409D01*
X901727Y308404D01*
X901623Y308403D01*
X901518Y308406D01*
X901414Y308413D01*
X901310Y308424D01*
X901206Y308439D01*
X901103Y308458D01*
X901001Y308480D01*
X900900Y308507D01*
X900800Y308537D01*
X900701Y308572D01*
X900604Y308610D01*
X900508Y308651D01*
X900414Y308696D01*
X900321Y308745D01*
X900230Y308798D01*
X900142Y308853D01*
X900056Y308912D01*
X899972Y308975D01*
X899890Y309040D01*
X899811Y309109D01*
X899735Y309180D01*
X899661Y309254D01*
X899590Y309331D01*
X899522Y309411D01*
X899458Y309493D01*
X899396Y309578D01*
X899338Y309665D01*
X899283Y309754D01*
X899232Y309845D01*
X899184Y309938D01*
X899139Y310033D01*
X899099Y310129D01*
X899062Y310227D01*
X899028Y310326D01*
X898999Y310426D01*
X898973Y310528D01*
X898952Y310630D01*
X898934Y310733D01*
X898920Y310837D01*
X898910Y310941D01*
X898904Y311045D01*
X898902Y311150D01*
D25*
X882396Y311150D02*
X850900Y311150D01*
X901700Y311150D02*
X950468Y311150D01*
D26*
X705250Y553250D03*
X755250Y553250D03*
X730250Y653250D03*
D27*
X317500Y241300D03*
X368300Y241300D03*
D28*
X419100Y247650D03*
D27*
X444500Y241300D03*
X520700Y241300D03*
X571500Y241300D03*
X622300Y241300D03*
X723900Y241300D03*
D28*
X673100Y247650D03*
X749300Y247650D03*
D27*
X774700Y241300D03*
X850900Y241300D03*
D29*
X341249Y85979D03*
D30*
X322009Y182880D03*
D31*
X381254Y193802D03*
D32*
X461899Y193675D03*
D31*
X621792Y193802D03*
D33*
X782130Y193802D03*
D34*
X701802Y193802D03*
D29*
X421513Y85979D03*
X501523Y85979D03*
D35*
X520700Y182880D03*
X562356Y182880D03*
D36*
X581787Y85979D03*
D37*
X661670Y85979D03*
D36*
X741807Y85979D03*
X822071Y85979D03*
D38*
X841375Y182880D03*
D39*
X317500Y228600D02*
X317500Y241300D01*
X368300Y241300D02*
X368300Y228600D01*
X444500Y228600D02*
X444500Y241300D01*
X520700Y241300D02*
X520700Y228600D01*
X571500Y228600D02*
X571500Y241300D01*
X622300Y241300D02*
X622300Y228600D01*
X723900Y228600D02*
X723900Y241300D01*
X774700Y241300D02*
X774700Y228600D01*
X850900Y228600D02*
X850900Y241300D01*
D25*
X421589Y237236D02*
X421589Y145034D01*
D39*
X421589Y237236D02*
X419100Y239776D01*
X419100Y248412D01*
X661924Y236728D02*
X661924Y144780D01*
X661924Y236728D02*
X664337Y240538D01*
X741807Y237998D02*
X741807Y144526D01*
X741807Y237998D02*
X749046Y243078D01*
D40*
X664337Y240538D02*
X664210Y240538D01*
D39*
X664337Y240538D02*
X669290Y240538D01*
X673100Y243332D01*
M02*
